<svg width="800" height="580" viewBox="0 0 800 580" fill="none" xmlns="http://www.w3.org/2000/svg">
<mask id="mask0" mask-type="alpha" maskUnits="userSpaceOnUse" x="0" y="0" width="800" height="580">
<rect width="800" height="580" fill="white"/>
</mask>
<g mask="url(#mask0)">
<rect x="186" y="-18" width="800" height="580" fill="white"/>
<path d="M438.904 376.68C438.904 377.298 438.824 377.885 438.664 378.44C438.515 378.994 438.269 379.485 437.928 379.912C437.597 380.328 437.16 380.664 436.616 380.92C436.072 381.165 435.411 381.288 434.632 381.288C433.853 381.288 433.192 381.165 432.648 380.92C432.104 380.664 431.661 380.328 431.32 379.912C430.989 379.485 430.744 378.994 430.584 378.44C430.435 377.885 430.36 377.298 430.36 376.68V369.672H431.704V376.488C431.704 376.946 431.752 377.389 431.848 377.816C431.944 378.242 432.104 378.621 432.328 378.952C432.552 379.282 432.851 379.549 433.224 379.752C433.597 379.944 434.067 380.04 434.632 380.04C435.197 380.04 435.667 379.944 436.04 379.752C436.413 379.549 436.712 379.282 436.936 378.952C437.16 378.621 437.32 378.242 437.416 377.816C437.512 377.389 437.56 376.946 437.56 376.488V369.672H438.904V376.68Z" fill="#272B3C"/>
<path d="M444.346 375.032L440.538 369.672H442.266L445.322 374.104L448.346 369.672H450.026L446.218 375.032L450.394 381H448.618L445.258 375.976L441.882 381H440.218L444.346 375.032Z" fill="#272B3C"/>
<path d="M462.749 379.368C462.29 379.944 461.8 380.392 461.277 380.712C460.754 381.032 460.114 381.192 459.357 381.192C458.877 381.192 458.418 381.122 457.981 380.984C457.544 380.834 457.16 380.621 456.829 380.344C456.509 380.066 456.248 379.73 456.045 379.336C455.853 378.93 455.757 378.472 455.757 377.96C455.757 377.565 455.821 377.202 455.949 376.872C456.088 376.53 456.269 376.226 456.493 375.96C456.728 375.682 456.994 375.442 457.293 375.24C457.602 375.026 457.928 374.84 458.269 374.68C457.896 374.306 457.576 373.912 457.309 373.496C457.042 373.08 456.909 372.6 456.909 372.056C456.909 371.64 456.989 371.272 457.149 370.952C457.309 370.621 457.522 370.349 457.789 370.136C458.056 369.912 458.365 369.746 458.717 369.64C459.069 369.522 459.442 369.464 459.837 369.464C460.221 369.464 460.584 369.517 460.925 369.624C461.266 369.73 461.565 369.89 461.821 370.104C462.088 370.306 462.296 370.568 462.445 370.888C462.594 371.197 462.669 371.56 462.669 371.976C462.669 372.328 462.594 372.653 462.445 372.952C462.306 373.24 462.119 373.501 461.885 373.736C461.661 373.96 461.405 374.168 461.117 374.36C460.84 374.541 460.557 374.706 460.269 374.856L462.669 377.4L464.189 374.856H465.709L463.533 378.344L466.125 381H464.285L462.749 379.368ZM459.437 374.04C459.65 373.922 459.869 373.8 460.093 373.672C460.317 373.544 460.52 373.4 460.701 373.24C460.882 373.08 461.032 372.893 461.149 372.68C461.266 372.466 461.325 372.221 461.325 371.944C461.325 371.528 461.181 371.202 460.893 370.968C460.616 370.733 460.279 370.616 459.885 370.616C459.437 370.616 459.053 370.754 458.733 371.032C458.413 371.298 458.253 371.666 458.253 372.136C458.253 372.445 458.333 372.722 458.493 372.968C458.664 373.202 458.845 373.421 459.037 373.624L459.437 374.04ZM459.101 375.496C458.855 375.624 458.616 375.768 458.381 375.928C458.146 376.077 457.933 376.248 457.741 376.44C457.549 376.632 457.394 376.85 457.277 377.096C457.16 377.341 457.101 377.613 457.101 377.912C457.101 378.221 457.16 378.504 457.277 378.76C457.394 379.016 457.554 379.24 457.757 379.432C457.96 379.624 458.194 379.773 458.461 379.88C458.728 379.986 459.01 380.04 459.309 380.04C459.597 380.04 459.863 379.997 460.109 379.912C460.354 379.826 460.578 379.714 460.781 379.576C460.994 379.426 461.192 379.261 461.373 379.08C461.565 378.888 461.752 378.685 461.933 378.472L459.101 375.496Z" fill="#272B3C"/>
<path d="M472.205 369.672H473.549V381H472.205V369.672Z" fill="#272B3C"/>
<path d="M476.137 375.288C476.137 374.946 476.126 374.626 476.105 374.328C476.084 374.029 476.073 373.757 476.073 373.512H477.257C477.257 373.714 477.262 373.917 477.273 374.12C477.284 374.322 477.289 374.53 477.289 374.744H477.321C477.406 374.562 477.524 374.386 477.673 374.216C477.833 374.045 478.02 373.896 478.233 373.768C478.446 373.629 478.686 373.522 478.953 373.448C479.22 373.362 479.508 373.32 479.817 373.32C480.308 373.32 480.729 373.394 481.081 373.544C481.444 373.693 481.742 373.901 481.977 374.168C482.212 374.434 482.382 374.76 482.489 375.144C482.606 375.517 482.665 375.928 482.665 376.376V381H481.417V376.504C481.417 375.874 481.278 375.378 481.001 375.016C480.724 374.653 480.292 374.472 479.705 374.472C479.3 374.472 478.948 374.541 478.649 374.68C478.361 374.818 478.121 375.016 477.929 375.272C477.748 375.528 477.609 375.832 477.513 376.184C477.428 376.536 477.385 376.925 477.385 377.352V381H476.137V375.288Z" fill="#272B3C"/>
<path d="M485.028 375.288C485.028 374.946 485.017 374.626 484.996 374.328C484.974 374.029 484.964 373.757 484.964 373.512H486.148C486.148 373.714 486.153 373.917 486.164 374.12C486.174 374.322 486.18 374.53 486.18 374.744H486.212C486.297 374.562 486.414 374.386 486.564 374.216C486.724 374.045 486.91 373.896 487.124 373.768C487.337 373.629 487.577 373.522 487.844 373.448C488.11 373.362 488.398 373.32 488.708 373.32C489.198 373.32 489.62 373.394 489.972 373.544C490.334 373.693 490.633 373.901 490.868 374.168C491.102 374.434 491.273 374.76 491.38 375.144C491.497 375.517 491.556 375.928 491.556 376.376V381H490.308V376.504C490.308 375.874 490.169 375.378 489.892 375.016C489.614 374.653 489.182 374.472 488.596 374.472C488.19 374.472 487.838 374.541 487.54 374.68C487.252 374.818 487.012 375.016 486.82 375.272C486.638 375.528 486.5 375.832 486.404 376.184C486.318 376.536 486.276 376.925 486.276 377.352V381H485.028V375.288Z" fill="#272B3C"/>
<path d="M493.486 377.256C493.486 376.669 493.588 376.136 493.79 375.656C493.993 375.176 494.27 374.765 494.622 374.424C494.974 374.072 495.396 373.8 495.886 373.608C496.377 373.416 496.91 373.32 497.486 373.32C498.062 373.32 498.596 373.416 499.086 373.608C499.577 373.8 499.998 374.072 500.35 374.424C500.702 374.765 500.98 375.176 501.182 375.656C501.385 376.136 501.486 376.669 501.486 377.256C501.486 377.842 501.385 378.376 501.182 378.856C500.98 379.336 500.702 379.752 500.35 380.104C499.998 380.445 499.577 380.712 499.086 380.904C498.596 381.096 498.062 381.192 497.486 381.192C496.91 381.192 496.377 381.096 495.886 380.904C495.396 380.712 494.974 380.445 494.622 380.104C494.27 379.752 493.993 379.336 493.79 378.856C493.588 378.376 493.486 377.842 493.486 377.256ZM494.83 377.256C494.83 377.65 494.889 378.018 495.006 378.36C495.134 378.69 495.316 378.984 495.55 379.24C495.785 379.485 496.062 379.682 496.382 379.832C496.713 379.97 497.081 380.04 497.486 380.04C497.892 380.04 498.254 379.97 498.574 379.832C498.905 379.682 499.188 379.485 499.422 379.24C499.657 378.984 499.833 378.69 499.95 378.36C500.078 378.018 500.142 377.65 500.142 377.256C500.142 376.861 500.078 376.498 499.95 376.168C499.833 375.826 499.657 375.533 499.422 375.288C499.188 375.032 498.905 374.834 498.574 374.696C498.254 374.546 497.892 374.472 497.486 374.472C497.081 374.472 496.713 374.546 496.382 374.696C496.062 374.834 495.785 375.032 495.55 375.288C495.316 375.533 495.134 375.826 495.006 376.168C494.889 376.498 494.83 376.861 494.83 377.256Z" fill="#272B3C"/>
<path d="M506.826 381H505.45L502.394 373.512H503.85L506.186 379.384H506.218L508.442 373.512H509.786L506.826 381Z" fill="#272B3C"/>
<path d="M511.041 374.472C511.425 374.077 511.878 373.789 512.401 373.608C512.934 373.416 513.473 373.32 514.017 373.32C515.126 373.32 515.926 373.581 516.417 374.104C516.908 374.626 517.153 375.421 517.153 376.488V379.704C517.153 379.917 517.164 380.141 517.185 380.376C517.206 380.6 517.233 380.808 517.265 381H516.065C516.022 380.829 515.996 380.642 515.985 380.44C515.985 380.226 515.985 380.04 515.985 379.88H515.953C515.708 380.264 515.377 380.578 514.961 380.824C514.556 381.069 514.065 381.192 513.489 381.192C513.105 381.192 512.742 381.144 512.401 381.048C512.07 380.952 511.777 380.813 511.521 380.632C511.276 380.44 511.078 380.205 510.929 379.928C510.78 379.65 510.705 379.33 510.705 378.968C510.705 378.349 510.865 377.864 511.185 377.512C511.505 377.16 511.9 376.898 512.369 376.728C512.849 376.557 513.361 376.45 513.905 376.408C514.46 376.365 514.966 376.344 515.425 376.344H515.905V376.12C515.905 375.576 515.74 375.165 515.409 374.888C515.089 374.61 514.636 374.472 514.049 374.472C513.644 374.472 513.244 374.541 512.849 374.68C512.465 374.808 512.124 375.01 511.825 375.288L511.041 374.472ZM514.657 377.4C513.857 377.4 513.222 377.512 512.753 377.736C512.284 377.96 512.049 378.328 512.049 378.84C512.049 379.309 512.204 379.645 512.513 379.848C512.833 380.04 513.228 380.136 513.697 380.136C514.06 380.136 514.374 380.077 514.641 379.96C514.918 379.832 515.148 379.666 515.329 379.464C515.51 379.261 515.649 379.026 515.745 378.76C515.841 378.482 515.894 378.189 515.905 377.88V377.4H514.657Z" fill="#272B3C"/>
<path d="M523.53 374.568H521.322V378.312C521.322 378.557 521.327 378.786 521.338 379C521.349 379.202 521.391 379.384 521.466 379.544C521.541 379.693 521.653 379.816 521.802 379.912C521.951 379.997 522.165 380.04 522.442 380.04C522.623 380.04 522.81 380.018 523.002 379.976C523.194 379.933 523.375 379.869 523.546 379.784L523.594 380.92C523.381 381.016 523.141 381.085 522.874 381.128C522.618 381.17 522.373 381.192 522.138 381.192C521.69 381.192 521.333 381.133 521.066 381.016C520.799 380.898 520.591 380.733 520.442 380.52C520.293 380.306 520.191 380.045 520.138 379.736C520.095 379.416 520.074 379.064 520.074 378.68V374.568H518.442V373.512H520.074V371.384H521.322V373.512H523.53V374.568Z" fill="#272B3C"/>
<path d="M525.187 373.512H526.435V381H525.187V373.512ZM524.899 370.584C524.899 370.338 524.984 370.125 525.155 369.944C525.336 369.762 525.555 369.672 525.811 369.672C526.067 369.672 526.28 369.762 526.451 369.944C526.632 370.125 526.723 370.338 526.723 370.584C526.723 370.85 526.637 371.069 526.467 371.24C526.296 371.41 526.077 371.496 525.811 371.496C525.544 371.496 525.325 371.41 525.155 371.24C524.984 371.069 524.899 370.85 524.899 370.584Z" fill="#272B3C"/>
<path d="M528.486 377.256C528.486 376.669 528.588 376.136 528.79 375.656C528.993 375.176 529.27 374.765 529.622 374.424C529.974 374.072 530.396 373.8 530.886 373.608C531.377 373.416 531.91 373.32 532.486 373.32C533.062 373.32 533.596 373.416 534.086 373.608C534.577 373.8 534.998 374.072 535.35 374.424C535.702 374.765 535.98 375.176 536.182 375.656C536.385 376.136 536.486 376.669 536.486 377.256C536.486 377.842 536.385 378.376 536.182 378.856C535.98 379.336 535.702 379.752 535.35 380.104C534.998 380.445 534.577 380.712 534.086 380.904C533.596 381.096 533.062 381.192 532.486 381.192C531.91 381.192 531.377 381.096 530.886 380.904C530.396 380.712 529.974 380.445 529.622 380.104C529.27 379.752 528.993 379.336 528.79 378.856C528.588 378.376 528.486 377.842 528.486 377.256ZM529.83 377.256C529.83 377.65 529.889 378.018 530.006 378.36C530.134 378.69 530.316 378.984 530.55 379.24C530.785 379.485 531.062 379.682 531.382 379.832C531.713 379.97 532.081 380.04 532.486 380.04C532.892 380.04 533.254 379.97 533.574 379.832C533.905 379.682 534.188 379.485 534.422 379.24C534.657 378.984 534.833 378.69 534.95 378.36C535.078 378.018 535.142 377.65 535.142 377.256C535.142 376.861 535.078 376.498 534.95 376.168C534.833 375.826 534.657 375.533 534.422 375.288C534.188 375.032 533.905 374.834 533.574 374.696C533.254 374.546 532.892 374.472 532.486 374.472C532.081 374.472 531.713 374.546 531.382 374.696C531.062 374.834 530.785 375.032 530.55 375.288C530.316 375.533 530.134 375.826 530.006 376.168C529.889 376.498 529.83 376.861 529.83 377.256Z" fill="#272B3C"/>
<path d="M538.418 375.288C538.418 374.946 538.408 374.626 538.386 374.328C538.365 374.029 538.354 373.757 538.354 373.512H539.538C539.538 373.714 539.544 373.917 539.554 374.12C539.565 374.322 539.57 374.53 539.57 374.744H539.602C539.688 374.562 539.805 374.386 539.954 374.216C540.114 374.045 540.301 373.896 540.514 373.768C540.728 373.629 540.968 373.522 541.234 373.448C541.501 373.362 541.789 373.32 542.098 373.32C542.589 373.32 543.01 373.394 543.362 373.544C543.725 373.693 544.024 373.901 544.258 374.168C544.493 374.434 544.664 374.76 544.77 375.144C544.888 375.517 544.946 375.928 544.946 376.376V381H543.698V376.504C543.698 375.874 543.56 375.378 543.282 375.016C543.005 374.653 542.573 374.472 541.986 374.472C541.581 374.472 541.229 374.541 540.93 374.68C540.642 374.818 540.402 375.016 540.21 375.272C540.029 375.528 539.89 375.832 539.794 376.184C539.709 376.536 539.666 376.925 539.666 377.352V381H538.418V375.288Z" fill="#272B3C"/>
<path d="M551.778 369.672H556.13C556.503 369.672 556.898 369.714 557.314 369.8C557.73 369.885 558.141 370.024 558.546 370.216C558.962 370.397 559.357 370.637 559.73 370.936C560.114 371.234 560.45 371.597 560.738 372.024C561.026 372.44 561.255 372.925 561.426 373.48C561.597 374.024 561.682 374.642 561.682 375.336C561.682 376.029 561.597 376.653 561.426 377.208C561.255 377.752 561.026 378.237 560.738 378.664C560.45 379.08 560.114 379.437 559.73 379.736C559.357 380.034 558.962 380.28 558.546 380.472C558.141 380.653 557.73 380.786 557.314 380.872C556.898 380.957 556.503 381 556.13 381H551.778V369.672ZM553.122 379.752H555.682C556.333 379.752 556.935 379.666 557.49 379.496C558.045 379.325 558.525 379.064 558.93 378.712C559.335 378.349 559.655 377.89 559.89 377.336C560.125 376.781 560.242 376.114 560.242 375.336C560.242 374.557 560.125 373.89 559.89 373.336C559.655 372.781 559.335 372.328 558.93 371.976C558.525 371.613 558.045 371.346 557.49 371.176C556.935 371.005 556.333 370.92 555.682 370.92H553.122V379.752Z" fill="#272B3C"/>
<path d="M570.309 379.64C569.861 380.216 569.371 380.621 568.837 380.856C568.304 381.08 567.686 381.192 566.982 381.192C566.395 381.192 565.867 381.09 565.397 380.888C564.928 380.674 564.528 380.392 564.197 380.04C563.877 379.688 563.627 379.272 563.445 378.792C563.275 378.312 563.189 377.8 563.189 377.256C563.189 376.68 563.285 376.152 563.477 375.672C563.669 375.181 563.936 374.765 564.277 374.424C564.619 374.072 565.024 373.8 565.493 373.608C565.963 373.416 566.475 373.32 567.029 373.32C567.552 373.32 568.032 373.41 568.469 373.592C568.907 373.762 569.28 374.018 569.589 374.36C569.909 374.69 570.155 375.101 570.326 375.592C570.496 376.072 570.581 376.621 570.581 377.24V377.64H564.534C564.555 377.96 564.63 378.269 564.758 378.568C564.896 378.856 565.072 379.112 565.285 379.336C565.499 379.549 565.749 379.72 566.037 379.848C566.325 379.976 566.64 380.04 566.982 380.04C567.526 380.04 567.984 379.944 568.357 379.752C568.731 379.56 569.067 379.277 569.365 378.904L570.309 379.64ZM569.237 376.584C569.216 375.944 569.008 375.432 568.613 375.048C568.219 374.664 567.675 374.472 566.982 374.472C566.288 374.472 565.728 374.664 565.301 375.048C564.875 375.432 564.619 375.944 564.534 376.584H569.237Z" fill="#272B3C"/>
<path d="M572.672 379.032C572.917 379.341 573.184 379.586 573.472 379.768C573.771 379.949 574.144 380.04 574.592 380.04C574.784 380.04 574.976 380.018 575.168 379.976C575.371 379.933 575.552 379.864 575.712 379.768C575.872 379.672 576 379.554 576.096 379.416C576.192 379.266 576.24 379.09 576.24 378.888C576.24 378.685 576.192 378.52 576.096 378.392C576.011 378.264 575.893 378.157 575.744 378.072C575.595 377.976 575.424 377.901 575.232 377.848C575.04 377.794 574.843 377.746 574.64 377.704C574.288 377.629 573.952 377.544 573.632 377.448C573.312 377.352 573.029 377.229 572.784 377.08C572.549 376.92 572.357 376.717 572.208 376.472C572.069 376.226 572 375.912 572 375.528C572 375.165 572.08 374.845 572.24 374.568C572.4 374.29 572.613 374.061 572.88 373.88C573.147 373.698 573.445 373.56 573.776 373.464C574.107 373.368 574.448 373.32 574.8 373.32C575.333 373.32 575.824 373.426 576.272 373.64C576.731 373.853 577.088 374.2 577.344 374.68L576.304 375.368C576.144 375.101 575.931 374.888 575.664 374.728C575.408 374.557 575.093 374.472 574.72 374.472C574.549 374.472 574.373 374.493 574.192 374.536C574.021 374.578 573.867 374.642 573.728 374.728C573.589 374.813 573.472 374.925 573.376 375.064C573.291 375.192 573.248 375.341 573.248 375.512C573.248 375.672 573.296 375.81 573.392 375.928C573.499 376.034 573.637 376.13 573.808 376.216C573.989 376.301 574.192 376.376 574.416 376.44C574.651 376.504 574.891 376.557 575.136 376.6C575.467 376.664 575.781 376.749 576.08 376.856C576.379 376.952 576.64 377.085 576.864 377.256C577.088 377.426 577.264 377.64 577.392 377.896C577.52 378.152 577.584 378.466 577.584 378.84C577.584 379.266 577.499 379.629 577.328 379.928C577.157 380.226 576.928 380.472 576.64 380.664C576.363 380.845 576.043 380.978 575.68 381.064C575.328 381.149 574.965 381.192 574.592 381.192C573.952 381.192 573.397 381.096 572.928 380.904C572.469 380.701 572.053 380.333 571.68 379.8L572.672 379.032Z" fill="#272B3C"/>
<path d="M579.437 373.512H580.685V381H579.437V373.512ZM579.149 370.584C579.149 370.338 579.234 370.125 579.405 369.944C579.586 369.762 579.805 369.672 580.061 369.672C580.317 369.672 580.53 369.762 580.701 369.944C580.882 370.125 580.973 370.338 580.973 370.584C580.973 370.85 580.887 371.069 580.717 371.24C580.546 371.41 580.327 371.496 580.061 371.496C579.794 371.496 579.575 371.41 579.405 371.24C579.234 371.069 579.149 370.85 579.149 370.584Z" fill="#272B3C"/>
<path d="M590.64 380.664C590.64 382.029 590.288 383.064 589.584 383.768C588.891 384.482 587.883 384.84 586.56 384.84C585.824 384.84 585.158 384.733 584.56 384.52C583.974 384.306 583.414 383.938 582.88 383.416L583.776 382.392C584.171 382.818 584.587 383.138 585.024 383.352C585.472 383.576 585.984 383.688 586.56 383.688C587.115 383.688 587.574 383.602 587.936 383.432C588.31 383.272 588.603 383.048 588.816 382.76C589.03 382.482 589.179 382.162 589.264 381.8C589.35 381.437 589.392 381.058 589.392 380.664V379.704H589.36C589.062 380.184 588.672 380.536 588.192 380.76C587.712 380.984 587.222 381.096 586.72 381.096C586.134 381.096 585.595 381 585.104 380.808C584.614 380.616 584.192 380.349 583.84 380.008C583.488 379.666 583.216 379.261 583.024 378.792C582.832 378.322 582.736 377.81 582.736 377.256C582.736 376.648 582.832 376.098 583.024 375.608C583.216 375.117 583.483 374.706 583.824 374.376C584.176 374.034 584.598 373.773 585.088 373.592C585.579 373.41 586.123 373.32 586.72 373.32C586.976 373.32 587.232 373.352 587.488 373.416C587.744 373.469 587.99 373.56 588.224 373.688C588.47 373.805 588.688 373.96 588.88 374.152C589.072 374.333 589.232 374.546 589.36 374.792H589.392V373.512H590.64V380.664ZM584.08 377.256C584.08 377.64 584.15 377.997 584.288 378.328C584.427 378.648 584.614 378.93 584.848 379.176C585.094 379.41 585.376 379.597 585.696 379.736C586.016 379.874 586.358 379.944 586.72 379.944C587.147 379.944 587.526 379.869 587.856 379.72C588.187 379.57 588.464 379.373 588.688 379.128C588.923 378.872 589.099 378.584 589.216 378.264C589.334 377.933 589.392 377.586 589.392 377.224C589.392 376.818 589.328 376.45 589.2 376.12C589.072 375.778 588.891 375.485 588.656 375.24C588.422 374.994 588.139 374.808 587.808 374.68C587.478 374.541 587.115 374.472 586.72 374.472C586.326 374.472 585.963 374.546 585.632 374.696C585.312 374.834 585.035 375.032 584.8 375.288C584.576 375.533 584.4 375.826 584.272 376.168C584.144 376.498 584.08 376.861 584.08 377.256Z" fill="#272B3C"/>
<path d="M592.95 375.288C592.95 374.946 592.939 374.626 592.918 374.328C592.896 374.029 592.886 373.757 592.886 373.512H594.07C594.07 373.714 594.075 373.917 594.086 374.12C594.096 374.322 594.102 374.53 594.102 374.744H594.134C594.219 374.562 594.336 374.386 594.486 374.216C594.646 374.045 594.832 373.896 595.046 373.768C595.259 373.629 595.499 373.522 595.766 373.448C596.032 373.362 596.32 373.32 596.63 373.32C597.12 373.32 597.542 373.394 597.894 373.544C598.256 373.693 598.555 373.901 598.79 374.168C599.024 374.434 599.195 374.76 599.302 375.144C599.419 375.517 599.478 375.928 599.478 376.376V381H598.23V376.504C598.23 375.874 598.091 375.378 597.814 375.016C597.536 374.653 597.104 374.472 596.518 374.472C596.112 374.472 595.76 374.541 595.462 374.68C595.174 374.818 594.934 375.016 594.742 375.272C594.56 375.528 594.422 375.832 594.326 376.184C594.24 376.536 594.198 376.925 594.198 377.352V381H592.95V375.288Z" fill="#272B3C"/>
<path d="M629.408 250.672H632.304C632.848 250.672 633.387 250.704 633.92 250.768C634.464 250.832 634.949 250.97 635.376 251.184C635.803 251.397 636.149 251.712 636.416 252.128C636.683 252.533 636.816 253.088 636.816 253.792C636.816 254.624 636.565 255.296 636.064 255.808C635.563 256.32 634.869 256.645 633.984 256.784L637.2 262H635.552L632.48 256.912H630.752V262H629.408V250.672ZM630.752 255.664H631.952C632.325 255.664 632.709 255.653 633.104 255.632C633.509 255.61 633.877 255.541 634.208 255.424C634.549 255.306 634.827 255.125 635.04 254.88C635.264 254.624 635.376 254.261 635.376 253.792C635.376 253.386 635.296 253.061 635.136 252.816C634.976 252.57 634.763 252.384 634.496 252.256C634.24 252.117 633.947 252.026 633.616 251.984C633.296 251.941 632.971 251.92 632.64 251.92H630.752V255.664Z" fill="#272B3C"/>
<path d="M638.869 255.472C639.253 255.077 639.707 254.789 640.229 254.608C640.763 254.416 641.301 254.32 641.845 254.32C642.955 254.32 643.755 254.581 644.245 255.104C644.736 255.626 644.981 256.421 644.981 257.488V260.704C644.981 260.917 644.992 261.141 645.013 261.376C645.035 261.6 645.061 261.808 645.093 262H643.893C643.851 261.829 643.824 261.642 643.813 261.44C643.813 261.226 643.813 261.04 643.813 260.88H643.781C643.536 261.264 643.205 261.578 642.789 261.824C642.384 262.069 641.893 262.192 641.317 262.192C640.933 262.192 640.571 262.144 640.229 262.048C639.899 261.952 639.605 261.813 639.349 261.632C639.104 261.44 638.907 261.205 638.757 260.928C638.608 260.65 638.533 260.33 638.533 259.968C638.533 259.349 638.693 258.864 639.013 258.512C639.333 258.16 639.728 257.898 640.197 257.728C640.677 257.557 641.189 257.45 641.733 257.408C642.288 257.365 642.795 257.344 643.253 257.344H643.733V257.12C643.733 256.576 643.568 256.165 643.237 255.888C642.917 255.61 642.464 255.472 641.877 255.472C641.472 255.472 641.072 255.541 640.677 255.68C640.293 255.808 639.952 256.01 639.653 256.288L638.869 255.472ZM642.485 258.4C641.685 258.4 641.051 258.512 640.581 258.736C640.112 258.96 639.877 259.328 639.877 259.84C639.877 260.309 640.032 260.645 640.341 260.848C640.661 261.04 641.056 261.136 641.525 261.136C641.888 261.136 642.203 261.077 642.469 260.96C642.747 260.832 642.976 260.666 643.157 260.464C643.339 260.261 643.477 260.026 643.573 259.76C643.669 259.482 643.723 259.189 643.733 258.88V258.4H642.485Z" fill="#272B3C"/>
<path d="M647.198 254.512H648.446V255.6H648.478C648.819 255.194 649.214 254.88 649.662 254.656C650.121 254.432 650.622 254.32 651.166 254.32C651.753 254.32 652.286 254.421 652.766 254.624C653.257 254.816 653.673 255.088 654.014 255.44C654.355 255.792 654.622 256.208 654.814 256.688C655.006 257.168 655.102 257.69 655.102 258.256C655.102 258.821 655.006 259.344 654.814 259.824C654.622 260.304 654.355 260.72 654.014 261.072C653.683 261.424 653.289 261.701 652.83 261.904C652.371 262.096 651.881 262.192 651.358 262.192C650.686 262.192 650.094 262.048 649.582 261.76C649.081 261.461 648.713 261.098 648.478 260.672H648.446V265.648H647.198V254.512ZM648.446 258.256C648.446 258.65 648.505 259.018 648.622 259.36C648.75 259.69 648.931 259.984 649.166 260.24C649.401 260.485 649.678 260.682 649.998 260.832C650.329 260.97 650.697 261.04 651.102 261.04C651.508 261.04 651.87 260.97 652.19 260.832C652.521 260.682 652.803 260.485 653.038 260.24C653.273 259.984 653.449 259.69 653.566 259.36C653.694 259.018 653.758 258.65 653.758 258.256C653.758 257.861 653.694 257.498 653.566 257.168C653.449 256.826 653.273 256.533 653.038 256.288C652.803 256.032 652.521 255.834 652.19 255.696C651.87 255.546 651.508 255.472 651.102 255.472C650.697 255.472 650.329 255.546 649.998 255.696C649.678 255.834 649.401 256.032 649.166 256.288C648.931 256.533 648.75 256.826 648.622 257.168C648.505 257.498 648.446 257.861 648.446 258.256Z" fill="#272B3C"/>
<path d="M657.155 254.512H658.403V262H657.155V254.512ZM656.867 251.584C656.867 251.338 656.953 251.125 657.123 250.944C657.305 250.762 657.523 250.672 657.779 250.672C658.035 250.672 658.249 250.762 658.419 250.944C658.601 251.125 658.691 251.338 658.691 251.584C658.691 251.85 658.606 252.069 658.435 252.24C658.265 252.41 658.046 252.496 657.779 252.496C657.513 252.496 657.294 252.41 657.123 252.24C656.953 252.069 656.867 251.85 656.867 251.584Z" fill="#272B3C"/>
<path d="M667.111 260.672H667.079C666.844 261.098 666.471 261.461 665.959 261.76C665.458 262.048 664.871 262.192 664.199 262.192C663.676 262.192 663.186 262.096 662.727 261.904C662.269 261.701 661.868 261.424 661.527 261.072C661.196 260.72 660.935 260.304 660.743 259.824C660.551 259.344 660.455 258.821 660.455 258.256C660.455 257.69 660.551 257.168 660.743 256.688C660.935 256.208 661.202 255.792 661.543 255.44C661.884 255.088 662.295 254.816 662.775 254.624C663.266 254.421 663.805 254.32 664.391 254.32C664.935 254.32 665.431 254.432 665.879 254.656C666.338 254.88 666.738 255.194 667.079 255.6H667.111V249.904H668.359V262H667.111V260.672ZM667.111 258.256C667.111 257.861 667.047 257.498 666.919 257.168C666.802 256.826 666.626 256.533 666.391 256.288C666.157 256.032 665.874 255.834 665.543 255.696C665.223 255.546 664.86 255.472 664.455 255.472C664.05 255.472 663.682 255.546 663.351 255.696C663.031 255.834 662.754 256.032 662.519 256.288C662.284 256.533 662.103 256.826 661.975 257.168C661.858 257.498 661.799 257.861 661.799 258.256C661.799 258.65 661.858 259.018 661.975 259.36C662.103 259.69 662.284 259.984 662.519 260.24C662.754 260.485 663.031 260.682 663.351 260.832C663.682 260.97 664.05 261.04 664.455 261.04C664.86 261.04 665.223 260.97 665.543 260.832C665.874 260.682 666.157 260.485 666.391 260.24C666.626 259.984 666.802 259.69 666.919 259.36C667.047 259.018 667.111 258.65 667.111 258.256Z" fill="#272B3C"/>
<path d="M675.346 250.672H678.706C679.228 250.672 679.724 250.725 680.194 250.832C680.674 250.928 681.095 251.098 681.458 251.344C681.831 251.578 682.124 251.898 682.338 252.304C682.562 252.698 682.674 253.189 682.674 253.776C682.674 254.394 682.556 254.906 682.322 255.312C682.087 255.717 681.783 256.037 681.41 256.272C681.047 256.506 680.647 256.672 680.21 256.768C679.772 256.864 679.356 256.912 678.962 256.912H676.69V262H675.346V250.672ZM676.69 255.664H678.962C679.634 255.664 680.178 255.514 680.594 255.216C681.02 254.906 681.234 254.432 681.234 253.792C681.234 253.152 681.02 252.682 680.594 252.384C680.178 252.074 679.634 251.92 678.962 251.92H676.69V255.664Z" fill="#272B3C"/>
<path d="M684.606 256.288C684.606 255.946 684.595 255.626 684.574 255.328C684.553 255.029 684.542 254.757 684.542 254.512H685.726C685.726 254.714 685.731 254.917 685.742 255.12C685.753 255.322 685.758 255.53 685.758 255.744H685.79C685.875 255.562 685.993 255.386 686.142 255.216C686.302 255.045 686.489 254.896 686.702 254.768C686.915 254.629 687.155 254.522 687.422 254.448C687.689 254.362 687.977 254.32 688.286 254.32C688.371 254.32 688.457 254.325 688.542 254.336C688.627 254.346 688.713 254.368 688.798 254.4L688.718 255.664C688.505 255.6 688.281 255.568 688.046 255.568C687.278 255.568 686.718 255.818 686.366 256.32C686.025 256.81 685.854 257.488 685.854 258.352V262H684.606V256.288Z" fill="#272B3C"/>
<path d="M689.518 258.256C689.518 257.669 689.619 257.136 689.822 256.656C690.024 256.176 690.302 255.765 690.654 255.424C691.006 255.072 691.427 254.8 691.918 254.608C692.408 254.416 692.942 254.32 693.518 254.32C694.094 254.32 694.627 254.416 695.118 254.608C695.608 254.8 696.03 255.072 696.382 255.424C696.734 255.765 697.011 256.176 697.214 256.656C697.416 257.136 697.518 257.669 697.518 258.256C697.518 258.842 697.416 259.376 697.214 259.856C697.011 260.336 696.734 260.752 696.382 261.104C696.03 261.445 695.608 261.712 695.118 261.904C694.627 262.096 694.094 262.192 693.518 262.192C692.942 262.192 692.408 262.096 691.918 261.904C691.427 261.712 691.006 261.445 690.654 261.104C690.302 260.752 690.024 260.336 689.822 259.856C689.619 259.376 689.518 258.842 689.518 258.256ZM690.862 258.256C690.862 258.65 690.92 259.018 691.038 259.36C691.166 259.69 691.347 259.984 691.582 260.24C691.816 260.485 692.094 260.682 692.414 260.832C692.744 260.97 693.112 261.04 693.518 261.04C693.923 261.04 694.286 260.97 694.606 260.832C694.936 260.682 695.219 260.485 695.454 260.24C695.688 259.984 695.864 259.69 695.982 259.36C696.11 259.018 696.174 258.65 696.174 258.256C696.174 257.861 696.11 257.498 695.982 257.168C695.864 256.826 695.688 256.533 695.454 256.288C695.219 256.032 694.936 255.834 694.606 255.696C694.286 255.546 693.923 255.472 693.518 255.472C693.112 255.472 692.744 255.546 692.414 255.696C692.094 255.834 691.816 256.032 691.582 256.288C691.347 256.533 691.166 256.826 691.038 257.168C690.92 257.498 690.862 257.861 690.862 258.256Z" fill="#272B3C"/>
<path d="M703.546 255.568H701.338V259.312C701.338 259.557 701.343 259.786 701.354 260C701.364 260.202 701.407 260.384 701.482 260.544C701.556 260.693 701.668 260.816 701.818 260.912C701.967 260.997 702.18 261.04 702.458 261.04C702.639 261.04 702.826 261.018 703.018 260.976C703.21 260.933 703.391 260.869 703.562 260.784L703.61 261.92C703.396 262.016 703.156 262.085 702.89 262.128C702.634 262.17 702.388 262.192 702.154 262.192C701.706 262.192 701.348 262.133 701.082 262.016C700.815 261.898 700.607 261.733 700.458 261.52C700.308 261.306 700.207 261.045 700.154 260.736C700.111 260.416 700.09 260.064 700.09 259.68V255.568H698.458V254.512H700.09V252.384H701.338V254.512H703.546V255.568Z" fill="#272B3C"/>
<path d="M704.643 258.256C704.643 257.669 704.744 257.136 704.947 256.656C705.149 256.176 705.427 255.765 705.779 255.424C706.131 255.072 706.552 254.8 707.043 254.608C707.533 254.416 708.067 254.32 708.643 254.32C709.219 254.32 709.752 254.416 710.243 254.608C710.733 254.8 711.155 255.072 711.507 255.424C711.859 255.765 712.136 256.176 712.339 256.656C712.541 257.136 712.643 257.669 712.643 258.256C712.643 258.842 712.541 259.376 712.339 259.856C712.136 260.336 711.859 260.752 711.507 261.104C711.155 261.445 710.733 261.712 710.243 261.904C709.752 262.096 709.219 262.192 708.643 262.192C708.067 262.192 707.533 262.096 707.043 261.904C706.552 261.712 706.131 261.445 705.779 261.104C705.427 260.752 705.149 260.336 704.947 259.856C704.744 259.376 704.643 258.842 704.643 258.256ZM705.987 258.256C705.987 258.65 706.045 259.018 706.163 259.36C706.291 259.69 706.472 259.984 706.707 260.24C706.941 260.485 707.219 260.682 707.539 260.832C707.869 260.97 708.237 261.04 708.643 261.04C709.048 261.04 709.411 260.97 709.731 260.832C710.061 260.682 710.344 260.485 710.579 260.24C710.813 259.984 710.989 259.69 711.107 259.36C711.235 259.018 711.299 258.65 711.299 258.256C711.299 257.861 711.235 257.498 711.107 257.168C710.989 256.826 710.813 256.533 710.579 256.288C710.344 256.032 710.061 255.834 709.731 255.696C709.411 255.546 709.048 255.472 708.643 255.472C708.237 255.472 707.869 255.546 707.539 255.696C707.219 255.834 706.941 256.032 706.707 256.288C706.472 256.533 706.291 256.826 706.163 257.168C706.045 257.498 705.987 257.861 705.987 258.256Z" fill="#272B3C"/>
<path d="M718.671 255.568H716.463V259.312C716.463 259.557 716.468 259.786 716.479 260C716.489 260.202 716.532 260.384 716.607 260.544C716.681 260.693 716.793 260.816 716.943 260.912C717.092 260.997 717.305 261.04 717.583 261.04C717.764 261.04 717.951 261.018 718.143 260.976C718.335 260.933 718.516 260.869 718.687 260.784L718.735 261.92C718.521 262.016 718.281 262.085 718.015 262.128C717.759 262.17 717.513 262.192 717.279 262.192C716.831 262.192 716.473 262.133 716.207 262.016C715.94 261.898 715.732 261.733 715.583 261.52C715.433 261.306 715.332 261.045 715.279 260.736C715.236 260.416 715.215 260.064 715.215 259.68V255.568H713.583V254.512H715.215V252.384H716.463V254.512H718.671V255.568Z" fill="#272B3C"/>
<path d="M722.952 263.712C722.824 264.032 722.69 264.32 722.552 264.576C722.424 264.842 722.264 265.066 722.072 265.248C721.89 265.44 721.666 265.584 721.4 265.68C721.144 265.786 720.829 265.84 720.456 265.84C720.274 265.84 720.082 265.829 719.88 265.808C719.688 265.786 719.506 265.733 719.336 265.648L719.496 264.56C719.624 264.613 719.757 264.645 719.896 264.656C720.034 264.677 720.194 264.688 720.376 264.688C720.781 264.688 721.08 264.576 721.272 264.352C721.464 264.128 721.629 263.829 721.768 263.456L722.28 262.048L719.176 254.512H720.632L722.952 260.384H722.984L725.208 254.512H726.568L722.952 263.712Z" fill="#272B3C"/>
<path d="M727.854 254.512H729.102V255.6H729.134C729.476 255.194 729.87 254.88 730.318 254.656C730.777 254.432 731.278 254.32 731.822 254.32C732.409 254.32 732.942 254.421 733.422 254.624C733.913 254.816 734.329 255.088 734.67 255.44C735.012 255.792 735.278 256.208 735.47 256.688C735.662 257.168 735.758 257.69 735.758 258.256C735.758 258.821 735.662 259.344 735.47 259.824C735.278 260.304 735.012 260.72 734.67 261.072C734.34 261.424 733.945 261.701 733.486 261.904C733.028 262.096 732.537 262.192 732.014 262.192C731.342 262.192 730.75 262.048 730.238 261.76C729.737 261.461 729.369 261.098 729.134 260.672H729.102V265.648H727.854V254.512ZM729.102 258.256C729.102 258.65 729.161 259.018 729.278 259.36C729.406 259.69 729.588 259.984 729.822 260.24C730.057 260.485 730.334 260.682 730.654 260.832C730.985 260.97 731.353 261.04 731.758 261.04C732.164 261.04 732.526 260.97 732.846 260.832C733.177 260.682 733.46 260.485 733.694 260.24C733.929 259.984 734.105 259.69 734.222 259.36C734.35 259.018 734.414 258.65 734.414 258.256C734.414 257.861 734.35 257.498 734.222 257.168C734.105 256.826 733.929 256.533 733.694 256.288C733.46 256.032 733.177 255.834 732.846 255.696C732.526 255.546 732.164 255.472 731.758 255.472C731.353 255.472 730.985 255.546 730.654 255.696C730.334 255.834 730.057 256.032 729.822 256.288C729.588 256.533 729.406 256.826 729.278 257.168C729.161 257.498 729.102 257.861 729.102 258.256Z" fill="#272B3C"/>
<path d="M737.812 254.512H739.06V262H737.812V254.512ZM737.524 251.584C737.524 251.338 737.609 251.125 737.78 250.944C737.961 250.762 738.18 250.672 738.436 250.672C738.692 250.672 738.905 250.762 739.076 250.944C739.257 251.125 739.348 251.338 739.348 251.584C739.348 251.85 739.262 252.069 739.092 252.24C738.921 252.41 738.702 252.496 738.436 252.496C738.169 252.496 737.95 252.41 737.78 252.24C737.609 252.069 737.524 251.85 737.524 251.584Z" fill="#272B3C"/>
<path d="M741.543 256.288C741.543 255.946 741.533 255.626 741.511 255.328C741.49 255.029 741.479 254.757 741.479 254.512H742.663C742.663 254.714 742.669 254.917 742.679 255.12C742.69 255.322 742.695 255.53 742.695 255.744H742.727C742.813 255.562 742.93 255.386 743.079 255.216C743.239 255.045 743.426 254.896 743.639 254.768C743.853 254.629 744.093 254.522 744.359 254.448C744.626 254.362 744.914 254.32 745.223 254.32C745.714 254.32 746.135 254.394 746.487 254.544C746.85 254.693 747.149 254.901 747.383 255.168C747.618 255.434 747.789 255.76 747.895 256.144C748.013 256.517 748.071 256.928 748.071 257.376V262H746.823V257.504C746.823 256.874 746.685 256.378 746.407 256.016C746.13 255.653 745.698 255.472 745.111 255.472C744.706 255.472 744.354 255.541 744.055 255.68C743.767 255.818 743.527 256.016 743.335 256.272C743.154 256.528 743.015 256.832 742.919 257.184C742.834 257.536 742.791 257.925 742.791 258.352V262H741.543V256.288Z" fill="#272B3C"/>
<path d="M757.906 261.664C757.906 263.029 757.554 264.064 756.85 264.768C756.157 265.482 755.149 265.84 753.826 265.84C753.09 265.84 752.423 265.733 751.826 265.52C751.239 265.306 750.679 264.938 750.146 264.416L751.042 263.392C751.437 263.818 751.853 264.138 752.29 264.352C752.738 264.576 753.25 264.688 753.826 264.688C754.381 264.688 754.839 264.602 755.202 264.432C755.575 264.272 755.869 264.048 756.082 263.76C756.295 263.482 756.445 263.162 756.53 262.8C756.615 262.437 756.658 262.058 756.658 261.664V260.704H756.626C756.327 261.184 755.938 261.536 755.458 261.76C754.978 261.984 754.487 262.096 753.986 262.096C753.399 262.096 752.861 262 752.37 261.808C751.879 261.616 751.458 261.349 751.106 261.008C750.754 260.666 750.482 260.261 750.29 259.792C750.098 259.322 750.002 258.81 750.002 258.256C750.002 257.648 750.098 257.098 750.29 256.608C750.482 256.117 750.749 255.706 751.09 255.376C751.442 255.034 751.863 254.773 752.354 254.592C752.845 254.41 753.389 254.32 753.986 254.32C754.242 254.32 754.498 254.352 754.754 254.416C755.01 254.469 755.255 254.56 755.49 254.688C755.735 254.805 755.954 254.96 756.146 255.152C756.338 255.333 756.498 255.546 756.626 255.792H756.658V254.512H757.906V261.664ZM751.346 258.256C751.346 258.64 751.415 258.997 751.554 259.328C751.693 259.648 751.879 259.93 752.114 260.176C752.359 260.41 752.642 260.597 752.962 260.736C753.282 260.874 753.623 260.944 753.986 260.944C754.413 260.944 754.791 260.869 755.122 260.72C755.453 260.57 755.73 260.373 755.954 260.128C756.189 259.872 756.365 259.584 756.482 259.264C756.599 258.933 756.658 258.586 756.658 258.224C756.658 257.818 756.594 257.45 756.466 257.12C756.338 256.778 756.157 256.485 755.922 256.24C755.687 255.994 755.405 255.808 755.074 255.68C754.743 255.541 754.381 255.472 753.986 255.472C753.591 255.472 753.229 255.546 752.898 255.696C752.578 255.834 752.301 256.032 752.066 256.288C751.842 256.533 751.666 256.826 751.538 257.168C751.41 257.498 751.346 257.861 751.346 258.256Z" fill="#272B3C"/>
<path d="M142.799 130.672H146.159C146.681 130.672 147.177 130.725 147.647 130.832C148.127 130.928 148.548 131.098 148.911 131.344C149.284 131.578 149.577 131.898 149.791 132.304C150.015 132.698 150.127 133.189 150.127 133.776C150.127 134.394 150.009 134.906 149.775 135.312C149.54 135.717 149.236 136.037 148.863 136.272C148.5 136.506 148.1 136.672 147.663 136.768C147.225 136.864 146.809 136.912 146.415 136.912H144.143V142H142.799V130.672ZM144.143 135.664H146.415C147.087 135.664 147.631 135.514 148.047 135.216C148.473 134.906 148.687 134.432 148.687 133.792C148.687 133.152 148.473 132.682 148.047 132.384C147.631 132.074 147.087 131.92 146.415 131.92H144.143V135.664Z" fill="#272B3C"/>
<path d="M152.059 136.288C152.059 135.946 152.048 135.626 152.027 135.328C152.006 135.029 151.995 134.757 151.995 134.512H153.179C153.179 134.714 153.184 134.917 153.195 135.12C153.206 135.322 153.211 135.53 153.211 135.744H153.243C153.328 135.562 153.446 135.386 153.595 135.216C153.755 135.045 153.942 134.896 154.155 134.768C154.368 134.629 154.608 134.522 154.875 134.448C155.142 134.362 155.43 134.32 155.739 134.32C155.824 134.32 155.91 134.325 155.995 134.336C156.08 134.346 156.166 134.368 156.251 134.4L156.171 135.664C155.958 135.6 155.734 135.568 155.499 135.568C154.731 135.568 154.171 135.818 153.819 136.32C153.478 136.81 153.307 137.488 153.307 138.352V142H152.059V136.288Z" fill="#272B3C"/>
<path d="M156.971 138.256C156.971 137.669 157.072 137.136 157.275 136.656C157.477 136.176 157.755 135.765 158.107 135.424C158.459 135.072 158.88 134.8 159.371 134.608C159.861 134.416 160.395 134.32 160.971 134.32C161.547 134.32 162.08 134.416 162.571 134.608C163.061 134.8 163.483 135.072 163.835 135.424C164.187 135.765 164.464 136.176 164.667 136.656C164.869 137.136 164.971 137.669 164.971 138.256C164.971 138.842 164.869 139.376 164.667 139.856C164.464 140.336 164.187 140.752 163.835 141.104C163.483 141.445 163.061 141.712 162.571 141.904C162.08 142.096 161.547 142.192 160.971 142.192C160.395 142.192 159.861 142.096 159.371 141.904C158.88 141.712 158.459 141.445 158.107 141.104C157.755 140.752 157.477 140.336 157.275 139.856C157.072 139.376 156.971 138.842 156.971 138.256ZM158.315 138.256C158.315 138.65 158.373 139.018 158.491 139.36C158.619 139.69 158.8 139.984 159.035 140.24C159.269 140.485 159.547 140.682 159.867 140.832C160.197 140.97 160.565 141.04 160.971 141.04C161.376 141.04 161.739 140.97 162.059 140.832C162.389 140.682 162.672 140.485 162.907 140.24C163.141 139.984 163.317 139.69 163.435 139.36C163.563 139.018 163.627 138.65 163.627 138.256C163.627 137.861 163.563 137.498 163.435 137.168C163.317 136.826 163.141 136.533 162.907 136.288C162.672 136.032 162.389 135.834 162.059 135.696C161.739 135.546 161.376 135.472 160.971 135.472C160.565 135.472 160.197 135.546 159.867 135.696C159.547 135.834 159.269 136.032 159.035 136.288C158.8 136.533 158.619 136.826 158.491 137.168C158.373 137.498 158.315 137.861 158.315 138.256Z" fill="#272B3C"/>
<path d="M173.127 140.672H173.095C172.86 141.098 172.487 141.461 171.975 141.76C171.473 142.048 170.887 142.192 170.215 142.192C169.692 142.192 169.201 142.096 168.743 141.904C168.284 141.701 167.884 141.424 167.543 141.072C167.212 140.72 166.951 140.304 166.759 139.824C166.567 139.344 166.471 138.821 166.471 138.256C166.471 137.69 166.567 137.168 166.759 136.688C166.951 136.208 167.217 135.792 167.559 135.44C167.9 135.088 168.311 134.816 168.791 134.624C169.281 134.421 169.82 134.32 170.407 134.32C170.951 134.32 171.447 134.432 171.895 134.656C172.353 134.88 172.753 135.194 173.095 135.6H173.127V129.904H174.375V142H173.127V140.672ZM173.127 138.256C173.127 137.861 173.063 137.498 172.935 137.168C172.817 136.826 172.641 136.533 172.407 136.288C172.172 136.032 171.889 135.834 171.559 135.696C171.239 135.546 170.876 135.472 170.471 135.472C170.065 135.472 169.697 135.546 169.367 135.696C169.047 135.834 168.769 136.032 168.535 136.288C168.3 136.533 168.119 136.826 167.991 137.168C167.873 137.498 167.815 137.861 167.815 138.256C167.815 138.65 167.873 139.018 167.991 139.36C168.119 139.69 168.3 139.984 168.535 140.24C168.769 140.485 169.047 140.682 169.367 140.832C169.697 140.97 170.065 141.04 170.471 141.04C170.876 141.04 171.239 140.97 171.559 140.832C171.889 140.682 172.172 140.485 172.407 140.24C172.641 139.984 172.817 139.69 172.935 139.36C173.063 139.018 173.127 138.65 173.127 138.256Z" fill="#272B3C"/>
<path d="M183.212 140.224C183.212 140.565 183.223 140.885 183.244 141.184C183.265 141.482 183.276 141.754 183.276 142H182.092C182.092 141.797 182.087 141.594 182.076 141.392C182.065 141.189 182.06 140.981 182.06 140.768H182.028C181.943 140.949 181.82 141.125 181.66 141.296C181.511 141.466 181.329 141.621 181.116 141.76C180.903 141.888 180.663 141.989 180.396 142.064C180.129 142.149 179.841 142.192 179.532 142.192C179.041 142.192 178.615 142.117 178.252 141.968C177.9 141.818 177.607 141.61 177.372 141.344C177.137 141.077 176.961 140.757 176.844 140.384C176.737 140 176.684 139.584 176.684 139.136V134.512H177.932V139.008C177.932 139.637 178.071 140.133 178.348 140.496C178.625 140.858 179.057 141.04 179.644 141.04C180.049 141.04 180.396 140.97 180.684 140.832C180.983 140.693 181.223 140.496 181.404 140.24C181.596 139.984 181.735 139.68 181.82 139.328C181.916 138.976 181.964 138.586 181.964 138.16V134.512H183.212V140.224Z" fill="#272B3C"/>
<path d="M190.903 136.384C190.636 136.064 190.348 135.834 190.039 135.696C189.729 135.546 189.388 135.472 189.015 135.472C188.599 135.472 188.231 135.546 187.911 135.696C187.591 135.834 187.324 136.032 187.111 136.288C186.908 136.544 186.753 136.842 186.647 137.184C186.54 137.514 186.487 137.872 186.487 138.256C186.487 138.64 186.545 139.002 186.663 139.344C186.791 139.674 186.961 139.968 187.175 140.224C187.399 140.48 187.665 140.682 187.975 140.832C188.284 140.97 188.631 141.04 189.015 141.04C189.836 141.04 190.471 140.73 190.919 140.112L191.847 140.992C191.484 141.408 191.057 141.712 190.567 141.904C190.076 142.096 189.559 142.192 189.015 142.192C188.439 142.192 187.911 142.096 187.431 141.904C186.951 141.712 186.54 141.44 186.199 141.088C185.868 140.736 185.607 140.32 185.415 139.84C185.233 139.36 185.143 138.832 185.143 138.256C185.143 137.69 185.233 137.168 185.415 136.688C185.607 136.208 185.873 135.792 186.215 135.44C186.556 135.088 186.961 134.816 187.431 134.624C187.911 134.421 188.439 134.32 189.015 134.32C189.569 134.32 190.092 134.416 190.583 134.608C191.084 134.8 191.521 135.098 191.895 135.504L190.903 136.384Z" fill="#272B3C"/>
<path d="M197.389 135.568H195.181V139.312C195.181 139.557 195.187 139.786 195.197 140C195.208 140.202 195.251 140.384 195.325 140.544C195.4 140.693 195.512 140.816 195.661 140.912C195.811 140.997 196.024 141.04 196.301 141.04C196.483 141.04 196.669 141.018 196.861 140.976C197.053 140.933 197.235 140.869 197.405 140.784L197.453 141.92C197.24 142.016 197 142.085 196.733 142.128C196.477 142.17 196.232 142.192 195.997 142.192C195.549 142.192 195.192 142.133 194.925 142.016C194.659 141.898 194.451 141.733 194.301 141.52C194.152 141.306 194.051 141.045 193.997 140.736C193.955 140.416 193.933 140.064 193.933 139.68V135.568H192.301V134.512H193.933V132.384H195.181V134.512H197.389V135.568Z" fill="#272B3C"/>
<path d="M203.596 130.672H210.716V131.92H204.94V135.472H210.332V136.72H204.94V140.752H211.004V142H203.596V130.672Z" fill="#272B3C"/>
<path d="M212.856 136.288C212.856 135.946 212.845 135.626 212.824 135.328C212.803 135.029 212.792 134.757 212.792 134.512H213.976C213.976 134.714 213.981 134.917 213.992 135.12C214.003 135.322 214.008 135.53 214.008 135.744H214.04C214.125 135.562 214.243 135.386 214.392 135.216C214.552 135.045 214.739 134.896 214.952 134.768C215.165 134.629 215.405 134.522 215.672 134.448C215.939 134.362 216.227 134.32 216.536 134.32C217.027 134.32 217.448 134.394 217.8 134.544C218.163 134.693 218.461 134.901 218.696 135.168C218.931 135.434 219.101 135.76 219.208 136.144C219.325 136.517 219.384 136.928 219.384 137.376V142H218.136V137.504C218.136 136.874 217.997 136.378 217.72 136.016C217.443 135.653 217.011 135.472 216.424 135.472C216.019 135.472 215.667 135.541 215.368 135.68C215.08 135.818 214.84 136.016 214.648 136.272C214.467 136.528 214.328 136.832 214.232 137.184C214.147 137.536 214.104 137.925 214.104 138.352V142H212.856V136.288Z" fill="#272B3C"/>
<path d="M229.219 141.664C229.219 143.029 228.867 144.064 228.163 144.768C227.469 145.482 226.461 145.84 225.139 145.84C224.403 145.84 223.736 145.733 223.139 145.52C222.552 145.306 221.992 144.938 221.458 144.416L222.355 143.392C222.749 143.818 223.165 144.138 223.603 144.352C224.051 144.576 224.563 144.688 225.139 144.688C225.693 144.688 226.152 144.602 226.514 144.432C226.888 144.272 227.181 144.048 227.395 143.76C227.608 143.482 227.757 143.162 227.842 142.8C227.928 142.437 227.971 142.058 227.971 141.664V140.704H227.939C227.64 141.184 227.251 141.536 226.771 141.76C226.291 141.984 225.8 142.096 225.299 142.096C224.712 142.096 224.173 142 223.682 141.808C223.192 141.616 222.771 141.349 222.419 141.008C222.067 140.666 221.795 140.261 221.603 139.792C221.411 139.322 221.315 138.81 221.315 138.256C221.315 137.648 221.411 137.098 221.603 136.608C221.795 136.117 222.061 135.706 222.402 135.376C222.754 135.034 223.176 134.773 223.667 134.592C224.157 134.41 224.701 134.32 225.299 134.32C225.555 134.32 225.81 134.352 226.066 134.416C226.322 134.469 226.568 134.56 226.803 134.688C227.048 134.805 227.266 134.96 227.458 135.152C227.65 135.333 227.811 135.546 227.939 135.792H227.971V134.512H229.219V141.664ZM222.659 138.256C222.659 138.64 222.728 138.997 222.867 139.328C223.005 139.648 223.192 139.93 223.427 140.176C223.672 140.41 223.955 140.597 224.275 140.736C224.595 140.874 224.936 140.944 225.299 140.944C225.725 140.944 226.104 140.869 226.435 140.72C226.765 140.57 227.043 140.373 227.267 140.128C227.501 139.872 227.677 139.584 227.794 139.264C227.912 138.933 227.971 138.586 227.971 138.224C227.971 137.818 227.907 137.45 227.779 137.12C227.651 136.778 227.469 136.485 227.234 136.24C227 135.994 226.717 135.808 226.387 135.68C226.056 135.541 225.693 135.472 225.299 135.472C224.904 135.472 224.541 135.546 224.211 135.696C223.891 135.834 223.613 136.032 223.379 136.288C223.155 136.533 222.978 136.826 222.85 137.168C222.722 137.498 222.659 137.861 222.659 138.256Z" fill="#272B3C"/>
<path d="M231.64 134.512H232.888V142H231.64V134.512ZM231.352 131.584C231.352 131.338 231.437 131.125 231.608 130.944C231.789 130.762 232.008 130.672 232.264 130.672C232.52 130.672 232.733 130.762 232.904 130.944C233.085 131.125 233.176 131.338 233.176 131.584C233.176 131.85 233.09 132.069 232.92 132.24C232.749 132.41 232.53 132.496 232.264 132.496C231.997 132.496 231.778 132.41 231.608 132.24C231.437 132.069 231.352 131.85 231.352 131.584Z" fill="#272B3C"/>
<path d="M235.372 136.288C235.372 135.946 235.361 135.626 235.34 135.328C235.318 135.029 235.307 134.757 235.307 134.512H236.492C236.492 134.714 236.497 134.917 236.508 135.12C236.518 135.322 236.523 135.53 236.523 135.744H236.556C236.641 135.562 236.758 135.386 236.908 135.216C237.068 135.045 237.254 134.896 237.467 134.768C237.681 134.629 237.921 134.522 238.188 134.448C238.454 134.362 238.742 134.32 239.052 134.32C239.542 134.32 239.964 134.394 240.316 134.544C240.678 134.693 240.977 134.901 241.212 135.168C241.446 135.434 241.617 135.76 241.724 136.144C241.841 136.517 241.9 136.928 241.9 137.376V142H240.652V137.504C240.652 136.874 240.513 136.378 240.236 136.016C239.958 135.653 239.526 135.472 238.94 135.472C238.534 135.472 238.182 135.541 237.884 135.68C237.596 135.818 237.356 136.016 237.164 136.272C236.982 136.528 236.843 136.832 236.747 137.184C236.662 137.536 236.62 137.925 236.62 138.352V142H235.372V136.288Z" fill="#272B3C"/>
<path d="M250.95 140.64C250.502 141.216 250.011 141.621 249.478 141.856C248.945 142.08 248.326 142.192 247.622 142.192C247.035 142.192 246.507 142.09 246.038 141.888C245.569 141.674 245.169 141.392 244.838 141.04C244.518 140.688 244.267 140.272 244.086 139.792C243.915 139.312 243.83 138.8 243.83 138.256C243.83 137.68 243.926 137.152 244.118 136.672C244.31 136.181 244.577 135.765 244.918 135.424C245.259 135.072 245.665 134.8 246.134 134.608C246.603 134.416 247.115 134.32 247.67 134.32C248.193 134.32 248.673 134.41 249.11 134.592C249.547 134.762 249.921 135.018 250.23 135.36C250.55 135.69 250.795 136.101 250.966 136.592C251.137 137.072 251.222 137.621 251.222 138.24V138.64H245.174C245.195 138.96 245.27 139.269 245.398 139.568C245.537 139.856 245.713 140.112 245.926 140.336C246.139 140.549 246.39 140.72 246.678 140.848C246.966 140.976 247.281 141.04 247.622 141.04C248.166 141.04 248.625 140.944 248.998 140.752C249.371 140.56 249.707 140.277 250.006 139.904L250.95 140.64ZM249.878 137.584C249.857 136.944 249.649 136.432 249.254 136.048C248.859 135.664 248.315 135.472 247.622 135.472C246.929 135.472 246.369 135.664 245.942 136.048C245.515 136.432 245.259 136.944 245.174 137.584H249.878Z" fill="#272B3C"/>
<path d="M259.841 140.64C259.393 141.216 258.902 141.621 258.369 141.856C257.835 142.08 257.217 142.192 256.513 142.192C255.926 142.192 255.398 142.09 254.929 141.888C254.459 141.674 254.059 141.392 253.729 141.04C253.409 140.688 253.158 140.272 252.977 139.792C252.806 139.312 252.721 138.8 252.721 138.256C252.721 137.68 252.817 137.152 253.009 136.672C253.201 136.181 253.467 135.765 253.809 135.424C254.15 135.072 254.555 134.8 255.025 134.608C255.494 134.416 256.006 134.32 256.561 134.32C257.083 134.32 257.563 134.41 258.001 134.592C258.438 134.762 258.811 135.018 259.121 135.36C259.441 135.69 259.686 136.101 259.857 136.592C260.027 137.072 260.113 137.621 260.113 138.24V138.64H254.065C254.086 138.96 254.161 139.269 254.289 139.568C254.427 139.856 254.603 140.112 254.817 140.336C255.03 140.549 255.281 140.72 255.569 140.848C255.857 140.976 256.171 141.04 256.513 141.04C257.057 141.04 257.515 140.944 257.889 140.752C258.262 140.56 258.598 140.277 258.897 139.904L259.841 140.64ZM258.769 137.584C258.747 136.944 258.539 136.432 258.145 136.048C257.75 135.664 257.206 135.472 256.513 135.472C255.819 135.472 255.259 135.664 254.833 136.048C254.406 136.432 254.15 136.944 254.065 137.584H258.769Z" fill="#272B3C"/>
<path d="M262.043 136.288C262.043 135.946 262.033 135.626 262.011 135.328C261.99 135.029 261.979 134.757 261.979 134.512H263.163C263.163 134.714 263.169 134.917 263.179 135.12C263.19 135.322 263.195 135.53 263.195 135.744H263.227C263.313 135.562 263.43 135.386 263.579 135.216C263.739 135.045 263.926 134.896 264.139 134.768C264.353 134.629 264.593 134.522 264.859 134.448C265.126 134.362 265.414 134.32 265.723 134.32C265.809 134.32 265.894 134.325 265.979 134.336C266.065 134.346 266.15 134.368 266.235 134.4L266.155 135.664C265.942 135.6 265.718 135.568 265.483 135.568C264.715 135.568 264.155 135.818 263.803 136.32C263.462 136.81 263.291 137.488 263.291 138.352V142H262.043V136.288Z" fill="#272B3C"/>
<path d="M267.78 134.512H269.028V142H267.78V134.512ZM267.492 131.584C267.492 131.338 267.578 131.125 267.748 130.944C267.93 130.762 268.148 130.672 268.404 130.672C268.66 130.672 268.874 130.762 269.044 130.944C269.226 131.125 269.316 131.338 269.316 131.584C269.316 131.85 269.231 132.069 269.06 132.24C268.89 132.41 268.671 132.496 268.404 132.496C268.138 132.496 267.919 132.41 267.748 132.24C267.578 132.069 267.492 131.85 267.492 131.584Z" fill="#272B3C"/>
<path d="M271.512 136.288C271.512 135.946 271.501 135.626 271.48 135.328C271.459 135.029 271.448 134.757 271.448 134.512H272.632C272.632 134.714 272.637 134.917 272.648 135.12C272.659 135.322 272.664 135.53 272.664 135.744H272.696C272.781 135.562 272.899 135.386 273.048 135.216C273.208 135.045 273.395 134.896 273.608 134.768C273.821 134.629 274.061 134.522 274.328 134.448C274.595 134.362 274.883 134.32 275.192 134.32C275.683 134.32 276.104 134.394 276.456 134.544C276.819 134.693 277.117 134.901 277.352 135.168C277.587 135.434 277.757 135.76 277.864 136.144C277.981 136.517 278.04 136.928 278.04 137.376V142H276.792V137.504C276.792 136.874 276.653 136.378 276.376 136.016C276.099 135.653 275.667 135.472 275.08 135.472C274.675 135.472 274.323 135.541 274.024 135.68C273.736 135.818 273.496 136.016 273.304 136.272C273.123 136.528 272.984 136.832 272.888 137.184C272.803 137.536 272.76 137.925 272.76 138.352V142H271.512V136.288Z" fill="#272B3C"/>
<path d="M287.875 141.664C287.875 143.029 287.523 144.064 286.819 144.768C286.125 145.482 285.117 145.84 283.795 145.84C283.059 145.84 282.392 145.733 281.795 145.52C281.208 145.306 280.648 144.938 280.115 144.416L281.011 143.392C281.405 143.818 281.821 144.138 282.259 144.352C282.707 144.576 283.219 144.688 283.795 144.688C284.349 144.688 284.808 144.602 285.171 144.432C285.544 144.272 285.837 144.048 286.051 143.76C286.264 143.482 286.413 143.162 286.499 142.8C286.584 142.437 286.627 142.058 286.627 141.664V140.704H286.595C286.296 141.184 285.907 141.536 285.427 141.76C284.947 141.984 284.456 142.096 283.955 142.096C283.368 142.096 282.829 142 282.339 141.808C281.848 141.616 281.427 141.349 281.075 141.008C280.723 140.666 280.451 140.261 280.259 139.792C280.067 139.322 279.971 138.81 279.971 138.256C279.971 137.648 280.067 137.098 280.259 136.608C280.451 136.117 280.717 135.706 281.059 135.376C281.411 135.034 281.832 134.773 282.323 134.592C282.813 134.41 283.357 134.32 283.955 134.32C284.211 134.32 284.467 134.352 284.723 134.416C284.979 134.469 285.224 134.56 285.459 134.688C285.704 134.805 285.923 134.96 286.115 135.152C286.307 135.333 286.467 135.546 286.595 135.792H286.627V134.512H287.875V141.664ZM281.315 138.256C281.315 138.64 281.384 138.997 281.523 139.328C281.661 139.648 281.848 139.93 282.083 140.176C282.328 140.41 282.611 140.597 282.931 140.736C283.251 140.874 283.592 140.944 283.955 140.944C284.381 140.944 284.76 140.869 285.091 140.72C285.421 140.57 285.699 140.373 285.923 140.128C286.157 139.872 286.333 139.584 286.451 139.264C286.568 138.933 286.627 138.586 286.627 138.224C286.627 137.818 286.563 137.45 286.435 137.12C286.307 136.778 286.125 136.485 285.891 136.24C285.656 135.994 285.373 135.808 285.043 135.68C284.712 135.541 284.349 135.472 283.955 135.472C283.56 135.472 283.197 135.546 282.867 135.696C282.547 135.834 282.269 136.032 282.035 136.288C281.811 136.533 281.635 136.826 281.507 137.168C281.379 137.498 281.315 137.861 281.315 138.256Z" fill="#272B3C"/>
<path d="M84.992 449.768H86.256L91.072 461.096H89.504L88.352 458.312H82.688L81.52 461.096H80L84.992 449.768ZM85.6 451.496H85.568L83.216 457.064H87.84L85.6 451.496Z" fill="#272B3C"/>
<path d="M92.2896 453.608H93.5376V454.696H93.5696C93.911 454.29 94.3056 453.976 94.7536 453.752C95.2123 453.528 95.7136 453.416 96.2576 453.416C96.8443 453.416 97.3776 453.517 97.8576 453.72C98.3483 453.912 98.7643 454.184 99.1056 454.536C99.447 454.888 99.7136 455.304 99.9056 455.784C100.098 456.264 100.194 456.786 100.194 457.352C100.194 457.917 100.098 458.44 99.9056 458.92C99.7136 459.4 99.447 459.816 99.1056 460.168C98.775 460.52 98.3803 460.797 97.9216 461C97.463 461.192 96.9723 461.288 96.4496 461.288C95.7776 461.288 95.1856 461.144 94.6736 460.856C94.1723 460.557 93.8043 460.194 93.5696 459.768H93.5376V464.744H92.2896V453.608ZM93.5376 457.352C93.5376 457.746 93.5963 458.114 93.7136 458.456C93.8416 458.786 94.023 459.08 94.2576 459.336C94.4923 459.581 94.7696 459.778 95.0896 459.928C95.4203 460.066 95.7883 460.136 96.1936 460.136C96.599 460.136 96.9616 460.066 97.2816 459.928C97.6123 459.778 97.895 459.581 98.1296 459.336C98.3643 459.08 98.5403 458.786 98.6576 458.456C98.7856 458.114 98.8496 457.746 98.8496 457.352C98.8496 456.957 98.7856 456.594 98.6576 456.264C98.5403 455.922 98.3643 455.629 98.1296 455.384C97.895 455.128 97.6123 454.93 97.2816 454.792C96.9616 454.642 96.599 454.568 96.1936 454.568C95.7883 454.568 95.4203 454.642 95.0896 454.792C94.7696 454.93 94.4923 455.128 94.2576 455.384C94.023 455.629 93.8416 455.922 93.7136 456.264C93.5963 456.594 93.5376 456.957 93.5376 457.352Z" fill="#272B3C"/>
<path d="M102.071 453.608H103.319V454.696H103.351C103.692 454.29 104.087 453.976 104.535 453.752C104.994 453.528 105.495 453.416 106.039 453.416C106.626 453.416 107.159 453.517 107.639 453.72C108.13 453.912 108.546 454.184 108.887 454.536C109.228 454.888 109.495 455.304 109.687 455.784C109.879 456.264 109.975 456.786 109.975 457.352C109.975 457.917 109.879 458.44 109.687 458.92C109.495 459.4 109.228 459.816 108.887 460.168C108.556 460.52 108.162 460.797 107.703 461C107.244 461.192 106.754 461.288 106.231 461.288C105.559 461.288 104.967 461.144 104.455 460.856C103.954 460.557 103.586 460.194 103.351 459.768H103.319V464.744H102.071V453.608ZM103.319 457.352C103.319 457.746 103.378 458.114 103.495 458.456C103.623 458.786 103.804 459.08 104.039 459.336C104.274 459.581 104.551 459.778 104.871 459.928C105.202 460.066 105.57 460.136 105.975 460.136C106.38 460.136 106.743 460.066 107.063 459.928C107.394 459.778 107.676 459.581 107.911 459.336C108.146 459.08 108.322 458.786 108.439 458.456C108.567 458.114 108.631 457.746 108.631 457.352C108.631 456.957 108.567 456.594 108.439 456.264C108.322 455.922 108.146 455.629 107.911 455.384C107.676 455.128 107.394 454.93 107.063 454.792C106.743 454.642 106.38 454.568 105.975 454.568C105.57 454.568 105.202 454.642 104.871 454.792C104.551 454.93 104.274 455.128 104.039 455.384C103.804 455.629 103.623 455.922 103.495 456.264C103.378 456.594 103.319 456.957 103.319 457.352Z" fill="#272B3C"/>
<path d="M112.028 449H113.276V461.096H112.028V449Z" fill="#272B3C"/>
<path d="M115.888 453.608H117.136V461.096H115.888V453.608ZM115.599 450.68C115.599 450.434 115.685 450.221 115.855 450.04C116.037 449.858 116.256 449.768 116.512 449.768C116.768 449.768 116.981 449.858 117.152 450.04C117.333 450.221 117.424 450.434 117.424 450.68C117.424 450.946 117.338 451.165 117.167 451.336C116.997 451.506 116.778 451.592 116.512 451.592C116.245 451.592 116.026 451.506 115.855 451.336C115.685 451.165 115.599 450.946 115.599 450.68Z" fill="#272B3C"/>
<path d="M124.947 455.48C124.681 455.16 124.393 454.93 124.083 454.792C123.774 454.642 123.433 454.568 123.059 454.568C122.643 454.568 122.275 454.642 121.955 454.792C121.635 454.93 121.369 455.128 121.155 455.384C120.953 455.64 120.798 455.938 120.691 456.28C120.585 456.61 120.531 456.968 120.531 457.352C120.531 457.736 120.59 458.098 120.707 458.44C120.835 458.77 121.006 459.064 121.219 459.32C121.443 459.576 121.71 459.778 122.019 459.928C122.329 460.066 122.675 460.136 123.059 460.136C123.881 460.136 124.515 459.826 124.963 459.208L125.891 460.088C125.529 460.504 125.102 460.808 124.611 461C124.121 461.192 123.603 461.288 123.059 461.288C122.483 461.288 121.955 461.192 121.475 461C120.995 460.808 120.585 460.536 120.243 460.184C119.913 459.832 119.651 459.416 119.459 458.936C119.278 458.456 119.187 457.928 119.187 457.352C119.187 456.786 119.278 456.264 119.459 455.784C119.651 455.304 119.918 454.888 120.259 454.536C120.601 454.184 121.006 453.912 121.475 453.72C121.955 453.517 122.483 453.416 123.059 453.416C123.614 453.416 124.137 453.512 124.627 453.704C125.129 453.896 125.566 454.194 125.939 454.6L124.947 455.48Z" fill="#272B3C"/>
<path d="M127.242 454.568C127.626 454.173 128.079 453.885 128.602 453.704C129.135 453.512 129.674 453.416 130.218 453.416C131.327 453.416 132.127 453.677 132.618 454.2C133.109 454.722 133.354 455.517 133.354 456.584V459.8C133.354 460.013 133.365 460.237 133.386 460.472C133.407 460.696 133.434 460.904 133.466 461.096H132.266C132.223 460.925 132.197 460.738 132.186 460.536C132.186 460.322 132.186 460.136 132.186 459.976H132.154C131.909 460.36 131.578 460.674 131.162 460.92C130.757 461.165 130.266 461.288 129.69 461.288C129.306 461.288 128.943 461.24 128.602 461.144C128.271 461.048 127.978 460.909 127.722 460.728C127.477 460.536 127.279 460.301 127.13 460.024C126.981 459.746 126.906 459.426 126.906 459.064C126.906 458.445 127.066 457.96 127.386 457.608C127.706 457.256 128.101 456.994 128.57 456.824C129.05 456.653 129.562 456.546 130.106 456.504C130.661 456.461 131.167 456.44 131.626 456.44H132.106V456.216C132.106 455.672 131.941 455.261 131.61 454.984C131.29 454.706 130.837 454.568 130.25 454.568C129.845 454.568 129.445 454.637 129.05 454.776C128.666 454.904 128.325 455.106 128.026 455.384L127.242 454.568ZM130.858 457.496C130.058 457.496 129.423 457.608 128.954 457.832C128.485 458.056 128.25 458.424 128.25 458.936C128.25 459.405 128.405 459.741 128.714 459.944C129.034 460.136 129.429 460.232 129.898 460.232C130.261 460.232 130.575 460.173 130.842 460.056C131.119 459.928 131.349 459.762 131.53 459.56C131.711 459.357 131.85 459.122 131.946 458.856C132.042 458.578 132.095 458.285 132.106 457.976V457.496H130.858Z" fill="#272B3C"/>
<path d="M139.731 454.664H137.523V458.408C137.523 458.653 137.528 458.882 137.539 459.096C137.55 459.298 137.592 459.48 137.667 459.64C137.742 459.789 137.854 459.912 138.003 460.008C138.152 460.093 138.366 460.136 138.643 460.136C138.824 460.136 139.011 460.114 139.203 460.072C139.395 460.029 139.576 459.965 139.747 459.88L139.795 461.016C139.582 461.112 139.342 461.181 139.075 461.224C138.819 461.266 138.574 461.288 138.339 461.288C137.891 461.288 137.534 461.229 137.267 461.112C137 460.994 136.792 460.829 136.643 460.616C136.494 460.402 136.392 460.141 136.339 459.832C136.296 459.512 136.275 459.16 136.275 458.776V454.664H134.643V453.608H136.275V451.48H137.523V453.608H139.731V454.664Z" fill="#272B3C"/>
<path d="M141.388 453.608H142.636V461.096H141.388V453.608ZM141.099 450.68C141.099 450.434 141.185 450.221 141.355 450.04C141.537 449.858 141.756 449.768 142.012 449.768C142.268 449.768 142.481 449.858 142.652 450.04C142.833 450.221 142.924 450.434 142.924 450.68C142.924 450.946 142.838 451.165 142.667 451.336C142.497 451.506 142.278 451.592 142.012 451.592C141.745 451.592 141.526 451.506 141.355 451.336C141.185 451.165 141.099 450.946 141.099 450.68Z" fill="#272B3C"/>
<path d="M144.687 457.352C144.687 456.765 144.789 456.232 144.991 455.752C145.194 455.272 145.471 454.861 145.823 454.52C146.175 454.168 146.597 453.896 147.087 453.704C147.578 453.512 148.111 453.416 148.687 453.416C149.263 453.416 149.797 453.512 150.287 453.704C150.778 453.896 151.199 454.168 151.551 454.52C151.903 454.861 152.181 455.272 152.383 455.752C152.586 456.232 152.687 456.765 152.687 457.352C152.687 457.938 152.586 458.472 152.383 458.952C152.181 459.432 151.903 459.848 151.551 460.2C151.199 460.541 150.778 460.808 150.287 461C149.797 461.192 149.263 461.288 148.687 461.288C148.111 461.288 147.578 461.192 147.087 461C146.597 460.808 146.175 460.541 145.823 460.2C145.471 459.848 145.194 459.432 144.991 458.952C144.789 458.472 144.687 457.938 144.687 457.352ZM146.031 457.352C146.031 457.746 146.09 458.114 146.207 458.456C146.335 458.786 146.517 459.08 146.751 459.336C146.986 459.581 147.263 459.778 147.583 459.928C147.914 460.066 148.282 460.136 148.687 460.136C149.093 460.136 149.455 460.066 149.775 459.928C150.106 459.778 150.389 459.581 150.623 459.336C150.858 459.08 151.034 458.786 151.151 458.456C151.279 458.114 151.343 457.746 151.343 457.352C151.343 456.957 151.279 456.594 151.151 456.264C151.034 455.922 150.858 455.629 150.623 455.384C150.389 455.128 150.106 454.93 149.775 454.792C149.455 454.642 149.093 454.568 148.687 454.568C148.282 454.568 147.914 454.642 147.583 454.792C147.263 454.93 146.986 455.128 146.751 455.384C146.517 455.629 146.335 455.922 146.207 456.264C146.09 456.594 146.031 456.957 146.031 457.352Z" fill="#272B3C"/>
<path d="M154.619 455.384C154.619 455.042 154.609 454.722 154.587 454.424C154.566 454.125 154.555 453.853 154.555 453.608H155.739C155.739 453.81 155.745 454.013 155.755 454.216C155.766 454.418 155.771 454.626 155.771 454.84H155.803C155.889 454.658 156.006 454.482 156.155 454.312C156.315 454.141 156.502 453.992 156.715 453.864C156.929 453.725 157.169 453.618 157.435 453.544C157.702 453.458 157.99 453.416 158.299 453.416C158.79 453.416 159.211 453.49 159.563 453.64C159.926 453.789 160.225 453.997 160.459 454.264C160.694 454.53 160.865 454.856 160.971 455.24C161.089 455.613 161.147 456.024 161.147 456.472V461.096H159.899V456.6C159.899 455.97 159.761 455.474 159.483 455.112C159.206 454.749 158.774 454.568 158.187 454.568C157.782 454.568 157.43 454.637 157.131 454.776C156.843 454.914 156.603 455.112 156.411 455.368C156.23 455.624 156.091 455.928 155.995 456.28C155.91 456.632 155.867 457.021 155.867 457.448V461.096H154.619V455.384Z" fill="#272B3C"/>
<path d="M173.563 451.768C173.339 451.405 173.04 451.144 172.667 450.984C172.294 450.813 171.904 450.728 171.499 450.728C171.2 450.728 170.907 450.765 170.619 450.84C170.331 450.914 170.07 451.026 169.835 451.176C169.611 451.325 169.43 451.522 169.291 451.768C169.152 452.013 169.083 452.301 169.083 452.632C169.083 452.888 169.12 453.117 169.195 453.32C169.28 453.512 169.414 453.688 169.595 453.848C169.776 454.008 170.022 454.157 170.331 454.296C170.64 454.434 171.019 454.573 171.467 454.712C171.904 454.85 172.326 455 172.731 455.16C173.147 455.32 173.51 455.522 173.819 455.768C174.139 456.013 174.39 456.322 174.571 456.696C174.763 457.058 174.859 457.517 174.859 458.072C174.859 458.637 174.747 459.128 174.523 459.544C174.299 459.96 174 460.306 173.627 460.584C173.264 460.85 172.843 461.048 172.363 461.176C171.883 461.314 171.387 461.384 170.875 461.384C170.544 461.384 170.214 461.352 169.883 461.288C169.552 461.234 169.232 461.149 168.923 461.032C168.624 460.904 168.342 460.744 168.075 460.552C167.808 460.349 167.579 460.104 167.387 459.816L168.539 458.872C168.784 459.288 169.126 459.602 169.563 459.816C170 460.029 170.464 460.136 170.955 460.136C171.243 460.136 171.531 460.093 171.819 460.008C172.118 459.922 172.384 459.8 172.619 459.64C172.854 459.469 173.046 459.261 173.195 459.016C173.344 458.77 173.419 458.488 173.419 458.168C173.419 457.816 173.36 457.533 173.243 457.32C173.126 457.096 172.944 456.904 172.699 456.744C172.454 456.584 172.144 456.44 171.771 456.312C171.398 456.184 170.96 456.034 170.459 455.864C170.054 455.736 169.68 455.592 169.339 455.432C168.998 455.261 168.699 455.058 168.443 454.824C168.198 454.578 168 454.29 167.851 453.96C167.712 453.618 167.643 453.213 167.643 452.744C167.643 452.2 167.75 451.725 167.963 451.32C168.176 450.914 168.464 450.578 168.827 450.312C169.19 450.034 169.6 449.826 170.059 449.688C170.518 449.549 170.998 449.48 171.499 449.48C172.139 449.48 172.72 449.581 173.243 449.784C173.776 449.976 174.251 450.317 174.667 450.808L173.563 451.768Z" fill="#272B3C"/>
<path d="M183.382 459.32C183.382 459.661 183.392 459.981 183.414 460.28C183.435 460.578 183.446 460.85 183.446 461.096H182.262C182.262 460.893 182.256 460.69 182.246 460.488C182.235 460.285 182.23 460.077 182.23 459.864H182.198C182.112 460.045 181.99 460.221 181.83 460.392C181.68 460.562 181.499 460.717 181.286 460.856C181.072 460.984 180.832 461.085 180.566 461.16C180.299 461.245 180.011 461.288 179.702 461.288C179.211 461.288 178.784 461.213 178.422 461.064C178.07 460.914 177.776 460.706 177.542 460.44C177.307 460.173 177.131 459.853 177.014 459.48C176.907 459.096 176.854 458.68 176.854 458.232V453.608H178.102V458.104C178.102 458.733 178.24 459.229 178.518 459.592C178.795 459.954 179.227 460.136 179.814 460.136C180.219 460.136 180.566 460.066 180.854 459.928C181.152 459.789 181.392 459.592 181.574 459.336C181.766 459.08 181.904 458.776 181.99 458.424C182.086 458.072 182.134 457.682 182.134 457.256V453.608H183.382V459.32Z" fill="#272B3C"/>
<path d="M185.904 459.128C186.15 459.437 186.416 459.682 186.704 459.864C187.003 460.045 187.376 460.136 187.824 460.136C188.016 460.136 188.208 460.114 188.4 460.072C188.603 460.029 188.784 459.96 188.944 459.864C189.104 459.768 189.232 459.65 189.328 459.512C189.424 459.362 189.472 459.186 189.472 458.984C189.472 458.781 189.424 458.616 189.328 458.488C189.243 458.36 189.126 458.253 188.976 458.168C188.827 458.072 188.656 457.997 188.464 457.944C188.272 457.89 188.075 457.842 187.872 457.8C187.52 457.725 187.184 457.64 186.864 457.544C186.544 457.448 186.262 457.325 186.016 457.176C185.782 457.016 185.59 456.813 185.44 456.568C185.302 456.322 185.232 456.008 185.232 455.624C185.232 455.261 185.312 454.941 185.472 454.664C185.632 454.386 185.846 454.157 186.112 453.976C186.379 453.794 186.678 453.656 187.008 453.56C187.339 453.464 187.68 453.416 188.032 453.416C188.566 453.416 189.056 453.522 189.504 453.736C189.963 453.949 190.32 454.296 190.576 454.776L189.536 455.464C189.376 455.197 189.163 454.984 188.896 454.824C188.64 454.653 188.326 454.568 187.952 454.568C187.782 454.568 187.606 454.589 187.424 454.632C187.254 454.674 187.099 454.738 186.96 454.824C186.822 454.909 186.704 455.021 186.608 455.16C186.523 455.288 186.48 455.437 186.48 455.608C186.48 455.768 186.528 455.906 186.624 456.024C186.731 456.13 186.87 456.226 187.04 456.312C187.222 456.397 187.424 456.472 187.648 456.536C187.883 456.6 188.123 456.653 188.368 456.696C188.699 456.76 189.014 456.845 189.312 456.952C189.611 457.048 189.872 457.181 190.096 457.352C190.32 457.522 190.496 457.736 190.624 457.992C190.752 458.248 190.816 458.562 190.816 458.936C190.816 459.362 190.731 459.725 190.56 460.024C190.39 460.322 190.16 460.568 189.872 460.76C189.595 460.941 189.275 461.074 188.912 461.16C188.56 461.245 188.198 461.288 187.824 461.288C187.184 461.288 186.63 461.192 186.16 461C185.702 460.797 185.286 460.429 184.912 459.896L185.904 459.128Z" fill="#272B3C"/>
<path d="M196.653 454.664H194.445V458.408C194.445 458.653 194.45 458.882 194.461 459.096C194.471 459.298 194.514 459.48 194.589 459.64C194.663 459.789 194.775 459.912 194.925 460.008C195.074 460.093 195.287 460.136 195.565 460.136C195.746 460.136 195.933 460.114 196.125 460.072C196.317 460.029 196.498 459.965 196.669 459.88L196.717 461.016C196.503 461.112 196.263 461.181 195.997 461.224C195.741 461.266 195.495 461.288 195.261 461.288C194.813 461.288 194.455 461.229 194.189 461.112C193.922 460.994 193.714 460.829 193.565 460.616C193.415 460.402 193.314 460.141 193.261 459.832C193.218 459.512 193.197 459.16 193.197 458.776V454.664H191.565V453.608H193.197V451.48H194.445V453.608H196.653V454.664Z" fill="#272B3C"/>
<path d="M204.87 459.736C204.422 460.312 203.931 460.717 203.398 460.952C202.864 461.176 202.246 461.288 201.542 461.288C200.955 461.288 200.427 461.186 199.958 460.984C199.488 460.77 199.088 460.488 198.758 460.136C198.438 459.784 198.187 459.368 198.006 458.888C197.835 458.408 197.75 457.896 197.75 457.352C197.75 456.776 197.846 456.248 198.038 455.768C198.23 455.277 198.496 454.861 198.838 454.52C199.179 454.168 199.584 453.896 200.054 453.704C200.523 453.512 201.035 453.416 201.59 453.416C202.112 453.416 202.592 453.506 203.03 453.688C203.467 453.858 203.84 454.114 204.15 454.456C204.47 454.786 204.715 455.197 204.886 455.688C205.056 456.168 205.142 456.717 205.142 457.336V457.736H199.094C199.115 458.056 199.19 458.365 199.318 458.664C199.456 458.952 199.632 459.208 199.846 459.432C200.059 459.645 200.31 459.816 200.598 459.944C200.886 460.072 201.2 460.136 201.542 460.136C202.086 460.136 202.544 460.04 202.918 459.848C203.291 459.656 203.627 459.373 203.926 459L204.87 459.736ZM203.798 456.68C203.776 456.04 203.568 455.528 203.174 455.144C202.779 454.76 202.235 454.568 201.542 454.568C200.848 454.568 200.288 454.76 199.862 455.144C199.435 455.528 199.179 456.04 199.094 456.68H203.798Z" fill="#272B3C"/>
<path d="M207.072 455.384C207.072 455.042 207.062 454.722 207.04 454.424C207.019 454.125 207.008 453.853 207.008 453.608H208.192C208.192 453.81 208.198 454.013 208.208 454.216C208.219 454.418 208.224 454.626 208.224 454.84H208.256C208.342 454.658 208.459 454.482 208.608 454.312C208.768 454.141 208.955 453.992 209.168 453.864C209.382 453.725 209.622 453.618 209.888 453.544C210.155 453.458 210.443 453.416 210.752 453.416C211.243 453.416 211.664 453.49 212.016 453.64C212.379 453.789 212.678 453.997 212.912 454.264C213.147 454.53 213.318 454.856 213.424 455.24C213.542 455.613 213.6 456.024 213.6 456.472V461.096H212.352V456.6C212.352 455.97 212.214 455.474 211.936 455.112C211.659 454.749 211.227 454.568 210.64 454.568C210.235 454.568 209.883 454.637 209.584 454.776C209.296 454.914 209.056 455.112 208.864 455.368C208.683 455.624 208.544 455.928 208.448 456.28C208.363 456.632 208.32 457.021 208.32 457.448V461.096H207.072V455.384Z" fill="#272B3C"/>
<path d="M215.867 454.568C216.251 454.173 216.704 453.885 217.227 453.704C217.76 453.512 218.299 453.416 218.843 453.416C219.952 453.416 220.752 453.677 221.243 454.2C221.734 454.722 221.979 455.517 221.979 456.584V459.8C221.979 460.013 221.99 460.237 222.011 460.472C222.032 460.696 222.059 460.904 222.091 461.096H220.891C220.848 460.925 220.822 460.738 220.811 460.536C220.811 460.322 220.811 460.136 220.811 459.976H220.779C220.534 460.36 220.203 460.674 219.787 460.92C219.382 461.165 218.891 461.288 218.315 461.288C217.931 461.288 217.568 461.24 217.227 461.144C216.896 461.048 216.603 460.909 216.347 460.728C216.102 460.536 215.904 460.301 215.755 460.024C215.606 459.746 215.531 459.426 215.531 459.064C215.531 458.445 215.691 457.96 216.011 457.608C216.331 457.256 216.726 456.994 217.195 456.824C217.675 456.653 218.187 456.546 218.731 456.504C219.286 456.461 219.792 456.44 220.251 456.44H220.731V456.216C220.731 455.672 220.566 455.261 220.235 454.984C219.915 454.706 219.462 454.568 218.875 454.568C218.47 454.568 218.07 454.637 217.675 454.776C217.291 454.904 216.95 455.106 216.651 455.384L215.867 454.568ZM219.483 457.496C218.683 457.496 218.048 457.608 217.579 457.832C217.11 458.056 216.875 458.424 216.875 458.936C216.875 459.405 217.03 459.741 217.339 459.944C217.659 460.136 218.054 460.232 218.523 460.232C218.886 460.232 219.2 460.173 219.467 460.056C219.744 459.928 219.974 459.762 220.155 459.56C220.336 459.357 220.475 459.122 220.571 458.856C220.667 458.578 220.72 458.285 220.731 457.976V457.496H219.483Z" fill="#272B3C"/>
<path d="M224.26 455.384C224.26 455.042 224.249 454.722 224.228 454.424C224.207 454.125 224.196 453.853 224.196 453.608H225.38C225.38 453.81 225.385 454.013 225.396 454.216C225.407 454.418 225.412 454.626 225.412 454.84H225.444C225.529 454.658 225.647 454.482 225.796 454.312C225.956 454.141 226.143 453.992 226.356 453.864C226.569 453.725 226.809 453.618 227.076 453.544C227.343 453.458 227.631 453.416 227.94 453.416C228.431 453.416 228.852 453.49 229.204 453.64C229.567 453.789 229.865 453.997 230.1 454.264C230.335 454.53 230.505 454.856 230.612 455.24C230.729 455.613 230.788 456.024 230.788 456.472V461.096H229.54V456.6C229.54 455.97 229.401 455.474 229.124 455.112C228.847 454.749 228.415 454.568 227.828 454.568C227.423 454.568 227.071 454.637 226.772 454.776C226.484 454.914 226.244 455.112 226.052 455.368C225.871 455.624 225.732 455.928 225.636 456.28C225.551 456.632 225.508 457.021 225.508 457.448V461.096H224.26V455.384Z" fill="#272B3C"/>
<path d="M238.479 455.48C238.212 455.16 237.924 454.93 237.615 454.792C237.305 454.642 236.964 454.568 236.59 454.568C236.174 454.568 235.806 454.642 235.486 454.792C235.166 454.93 234.9 455.128 234.686 455.384C234.484 455.64 234.329 455.938 234.223 456.28C234.116 456.61 234.062 456.968 234.062 457.352C234.062 457.736 234.121 458.098 234.238 458.44C234.366 458.77 234.537 459.064 234.751 459.32C234.975 459.576 235.241 459.778 235.551 459.928C235.86 460.066 236.207 460.136 236.59 460.136C237.412 460.136 238.047 459.826 238.495 459.208L239.423 460.088C239.06 460.504 238.633 460.808 238.143 461C237.652 461.192 237.134 461.288 236.59 461.288C236.014 461.288 235.487 461.192 235.007 461C234.527 460.808 234.116 460.536 233.775 460.184C233.444 459.832 233.182 459.416 232.99 458.936C232.809 458.456 232.719 457.928 232.719 457.352C232.719 456.786 232.809 456.264 232.99 455.784C233.182 455.304 233.449 454.888 233.79 454.536C234.132 454.184 234.537 453.912 235.007 453.72C235.487 453.517 236.014 453.416 236.59 453.416C237.145 453.416 237.668 453.512 238.158 453.704C238.66 453.896 239.097 454.194 239.471 454.6L238.479 455.48Z" fill="#272B3C"/>
<path d="M247.557 459.736C247.109 460.312 246.619 460.717 246.085 460.952C245.552 461.176 244.933 461.288 244.229 461.288C243.643 461.288 243.115 461.186 242.645 460.984C242.176 460.77 241.776 460.488 241.445 460.136C241.125 459.784 240.875 459.368 240.693 458.888C240.523 458.408 240.437 457.896 240.437 457.352C240.437 456.776 240.533 456.248 240.725 455.768C240.917 455.277 241.184 454.861 241.525 454.52C241.867 454.168 242.272 453.896 242.741 453.704C243.211 453.512 243.723 453.416 244.277 453.416C244.8 453.416 245.28 453.506 245.717 453.688C246.155 453.858 246.528 454.114 246.837 454.456C247.157 454.786 247.403 455.197 247.573 455.688C247.744 456.168 247.829 456.717 247.829 457.336V457.736H241.781C241.803 458.056 241.877 458.365 242.005 458.664C242.144 458.952 242.32 459.208 242.533 459.432C242.747 459.645 242.997 459.816 243.285 459.944C243.573 460.072 243.888 460.136 244.229 460.136C244.773 460.136 245.232 460.04 245.605 459.848C245.979 459.656 246.315 459.373 246.613 459L247.557 459.736ZM246.485 456.68C246.464 456.04 246.256 455.528 245.861 455.144C245.467 454.76 244.923 454.568 244.229 454.568C243.536 454.568 242.976 454.76 242.549 455.144C242.123 455.528 241.867 456.04 241.781 456.68H246.485Z" fill="#272B3C"/>
<path d="M403.001 377.37H408.717L407.716 383.29H402L403.001 377.37Z" fill="#272A3B"/>
<path d="M404.587 368H419.607L416.978 383.247H411.221L412.869 373.92H403.585L404.587 368Z" fill="#272A3B"/>
<path d="M601.001 257.37H606.717L605.716 263.29H600L601.001 257.37Z" fill="#272A3B"/>
<path d="M602.587 248H617.607L614.978 263.247H609.221L610.869 253.92H601.585L602.587 248Z" fill="#272A3B"/>
<path d="M261.789 451.239C262.043 451.096 263.39 450.231 264.692 449.5C264.858 449.419 265.039 449.377 265.223 449.377C265.407 449.376 265.588 449.417 265.754 449.496C265.92 449.575 266.066 449.691 266.181 449.835C266.296 449.978 266.377 450.146 266.418 450.325C268.113 455.404 273.691 455.823 276.675 453L275.199 452.109C274.24 451.542 274.253 450.646 275.234 450.115L282.414 446.218C283.39 445.687 284.198 446.16 284.198 447.275V455.391C284.198 456.506 283.422 456.952 282.458 456.39L280.916 455.467C277.602 461.112 266.645 462.544 261.361 453.545C261.392 453.553 260.291 452.082 261.789 451.239Z" fill="#EA1B3D"/>
<path d="M298.789 138.239C299.043 138.096 300.39 137.231 301.692 136.5C301.858 136.419 302.039 136.377 302.223 136.377C302.407 136.376 302.588 136.417 302.754 136.496C302.92 136.575 303.066 136.691 303.181 136.835C303.296 136.978 303.377 137.146 303.418 137.325C305.113 142.404 310.691 142.823 313.675 140L312.199 139.109C311.24 138.542 311.253 137.646 312.234 137.115L319.414 133.218C320.39 132.687 321.198 133.16 321.198 134.275V142.391C321.198 143.506 320.422 143.951 319.458 143.39L317.916 142.466C314.602 148.112 303.645 149.544 298.361 140.544C298.392 140.553 297.291 139.082 298.789 138.239Z" fill="#EA1B3D"/>
<path opacity="0.5" d="M1008.22 232.83C1009.48 243.578 1004.64 254.96 994.659 266.369C984.681 277.777 969.612 289.155 950.556 299.858C912.447 321.264 858.488 339.917 797.718 350.726C736.947 361.535 680.912 362.445 639.449 355.193C618.715 351.567 601.653 345.904 589.466 338.439C577.277 330.972 570.024 321.741 568.766 310.994C567.509 300.246 572.349 288.865 582.329 277.455C592.307 266.048 607.375 254.67 626.432 243.966C664.541 222.561 718.499 203.907 779.27 193.098C840.041 182.289 896.076 181.379 937.539 188.631C958.272 192.258 975.335 197.92 987.522 205.386C999.711 212.852 1006.96 222.083 1008.22 232.83Z" stroke="#272A3B"/>
<path opacity="0.5" d="M1382.1 166.33C1385.28 193.463 1371.89 222.354 1344.67 251.417C1317.47 280.471 1276.54 309.591 1224.91 337.13C1121.65 392.204 975.753 440.872 811.686 470.054C647.619 499.236 496.51 503.395 384.839 486.548C329 478.124 283.064 464.454 250.305 446.066C217.536 427.672 198.065 404.626 194.889 377.493C191.714 350.36 205.107 321.469 232.322 292.406C259.529 263.352 300.457 234.232 352.088 206.693C455.341 151.619 601.241 102.951 765.308 73.7693C929.375 44.5876 1080.48 40.4286 1192.15 57.2752C1247.99 65.6991 1293.93 79.369 1326.69 97.7575C1359.46 116.151 1378.93 139.197 1382.1 166.33Z" stroke="#EA1B3D" stroke-width="1.5"/>
<path opacity="0.5" d="M1186.38 201.143C1188.6 220.139 1179.69 240.272 1161.51 260.445C1143.32 280.615 1115.93 300.762 1081.34 319.752C1012.17 357.728 914.327 391.019 804.221 410.603C694.116 430.186 592.634 432.348 517.574 420.026C480.041 413.864 449.143 404.085 427.079 391.073C405.011 378.059 391.846 361.853 389.623 342.857C387.4 323.861 396.312 303.729 414.496 283.555C432.676 263.385 460.073 243.238 494.662 224.248C563.835 186.272 661.674 152.981 771.78 133.398C881.885 113.814 983.367 111.652 1058.43 123.975C1095.96 130.136 1126.86 139.915 1148.92 152.927C1170.99 165.941 1184.16 182.147 1186.38 201.143Z" stroke="#272A3B"/>
<path opacity="0.5" d="M1565.95 133.63C1570.06 168.735 1552.47 206.172 1516.75 243.878C1481.05 281.572 1427.38 319.391 1359.68 355.193C1224.29 426.792 1033.03 490.217 818.013 528.462C602.991 566.707 404.994 572.516 258.71 551.016C185.563 540.265 125.402 522.694 82.5156 498.978C39.6149 475.254 14.1569 445.474 10.0485 410.37C5.94013 375.265 23.5319 337.828 59.2432 300.122C94.9427 262.428 148.621 224.609 216.32 188.807C351.709 117.208 542.963 53.7826 757.985 15.5379C973.006 -22.7068 1171 -28.5157 1317.29 -7.01589C1390.43 3.73481 1450.6 21.3057 1493.48 45.0221C1536.38 68.7463 1561.84 98.5255 1565.95 133.63Z" stroke="#EA1B3D" stroke-width="2"/>
</g>
</svg>
